<svg xmlns="http://www.w3.org/2000/svg" width="55" height="56" viewBox="0 0 55 56">
  <g id="Group_31773" data-name="Group 31773" transform="translate(-975.5 -1203.828)">
    <g id="Ellipse_11" data-name="Ellipse 11" transform="translate(975.5 1203.828)" fill="#fff" stroke="#032b69" stroke-width="1">
      <ellipse cx="27.5" cy="28" rx="27.5" ry="28" stroke="none"/>
      <ellipse cx="27.5" cy="28" rx="27" ry="27.5" fill="none"/>
    </g>
    <ellipse id="Ellipse_12" data-name="Ellipse 12" cx="23.5" cy="24" rx="23.5" ry="24" transform="translate(979.5 1207.828)" fill="rgba(100,149,237,0.2)"/>
    <path id="Icon_metro-profile" data-name="Icon metro-profile" d="M29.563,10.6H27.676V7.772l-3.9-.06L23.8,10.6H12.09l.08-2.892-3.816.06v2.892L6.427,10.6A1.929,1.929,0,0,0,4.5,12.532v13.5a1.929,1.929,0,0,0,1.928,1.928H29.563a1.929,1.929,0,0,0,1.928-1.928v-13.5A1.929,1.929,0,0,0,29.563,10.6Zm-4.82-1.928h1.928v3.856H24.743ZM12.211,15.243c1.165,0,2.109,1.241,2.109,2.772s-.945,2.772-2.109,2.772S10.1,19.545,10.1,18.015s.945-2.772,2.109-2.772ZM9.319,8.676h1.928v3.856H9.319ZM8.034,24.05s.228-1.834.748-2.18a7.393,7.393,0,0,1,2.015-.576s.97,1.036,1.382,1.036,1.381-1.036,1.381-1.036a7.371,7.371,0,0,1,2.016.576c.61.407.763,2.18.763,2.18H8.034Zm19.6-.914H18.959v-.964h8.676Zm0-1.928H18.959v-.964h8.676Zm0-1.928H18.959v-.964h8.676Zm0-1.928H18.959v-.964h8.676Z" transform="translate(985.993 1212.113)" fill="#6495ed"/>
  </g>
</svg>
