<svg xmlns="http://www.w3.org/2000/svg" width="365.017" height="271.981" viewBox="0 0 365.017 271.981">
  <g id="To_the_stars-rafiki" data-name="To the stars-rafiki" transform="translate(0 -55)">
    <g id="freepik--background-complete--inject-33" transform="translate(0 55)">
      <rect id="Rectangle_8917" data-name="Rectangle 8917" width="365.017" height="0.183" transform="translate(0 239.013)" fill="#ebebeb"/>
      <rect id="Rectangle_8918" data-name="Rectangle 8918" width="24.179" height="0.183" transform="translate(304.263 250.759)" fill="#ebebeb"/>
      <rect id="Rectangle_8919" data-name="Rectangle 8919" width="6.344" height="0.183" transform="translate(235.458 252.745)" fill="#ebebeb"/>
      <rect id="Rectangle_8920" data-name="Rectangle 8920" width="14.009" height="0.183" transform="translate(289.524 243.984)" fill="#ebebeb"/>
      <rect id="Rectangle_8921" data-name="Rectangle 8921" width="31.53" height="0.183" transform="translate(38.298 245.211)" fill="#ebebeb"/>
      <rect id="Rectangle_8922" data-name="Rectangle 8922" width="4.621" height="0.183" transform="translate(76.332 245.211)" fill="#ebebeb"/>
      <rect id="Rectangle_8923" data-name="Rectangle 8923" width="68.39" height="0.183" transform="translate(95.977 248.292)" fill="#ebebeb"/>
      <path id="Path_55832" data-name="Path 55832" d="M183.333,261.453H42.371a4.168,4.168,0,0,1-4.161-4.168V59.132A4.169,4.169,0,0,1,42.371,55H183.333a4.168,4.168,0,0,1,4.168,4.168V257.285A4.168,4.168,0,0,1,183.333,261.453ZM42.371,55.146a3.986,3.986,0,0,0-3.979,3.986V257.285a3.986,3.986,0,0,0,3.979,3.986H183.333a3.993,3.993,0,0,0,3.986-3.986V59.132a3.993,3.993,0,0,0-3.986-3.986Z" transform="translate(-10.315 -55)" fill="#ebebeb"/>
      <path id="Path_55833" data-name="Path 55833" d="M399.638,261.453H258.668a4.176,4.176,0,0,1-4.169-4.168V59.132A4.176,4.176,0,0,1,258.668,55H399.638a4.169,4.169,0,0,1,4.154,4.132V257.285A4.168,4.168,0,0,1,399.638,261.453ZM258.668,55.146a3.993,3.993,0,0,0-3.986,3.986V257.285a3.993,3.993,0,0,0,3.986,3.986H399.638a3.993,3.993,0,0,0,3.986-3.986V59.132a3.993,3.993,0,0,0-3.986-3.986Z" transform="translate(-68.707 -55)" fill="#ebebeb"/>
      <path id="Path_55834" data-name="Path 55834" d="M214,75.233l.613,1.248a.489.489,0,0,0,.38.27l1.38.2a.5.5,0,0,1,.27.847l-.993.978a.489.489,0,0,0-.146.438l.234,1.372a.5.5,0,0,1-.73.526l-1.234-.65a.511.511,0,0,0-.46,0l-1.241.65a.5.5,0,0,1-.73-.526l.241-1.372a.511.511,0,0,0-.146-.438l-1-.978a.5.5,0,0,1,.277-.847l1.38-.2a.5.5,0,0,0,.38-.27l.613-1.248a.5.5,0,0,1,.913,0Z" transform="translate(-56.77 -60.384)" fill="#f5f5f5"/>
      <path id="Path_55835" data-name="Path 55835" d="M89.493,216.085l.621,1.256a.5.5,0,0,0,.372.27l1.38.2a.5.5,0,0,1,.277.847l-1,.971a.5.5,0,0,0-.139.445l.234,1.372a.5.5,0,0,1-.73.526l-1.234-.65a.526.526,0,0,0-.467,0l-1.234.65a.5.5,0,0,1-.73-.526l.234-1.372a.5.5,0,0,0-.139-.445l-.993-.971a.5.5,0,0,1,.277-.847l1.38-.2a.5.5,0,0,0,.372-.27l.621-1.256a.5.5,0,0,1,.9,0Z" transform="translate(-23.162 -98.411)" fill="#f0f0f0"/>
      <path id="Path_55836" data-name="Path 55836" d="M73.784,121.58l.613,1.248a.5.5,0,0,0,.372.277l1.38.2a.5.5,0,0,1,.277.854l-1,.971a.518.518,0,0,0-.146.438l.241,1.38a.5.5,0,0,1-.73.526l-1.234-.65a.482.482,0,0,0-.467,0l-1.234.65a.5.5,0,0,1-.73-.526l.234-1.38a.475.475,0,0,0-.146-.438l-.993-.971a.5.5,0,0,1,.27-.854l1.38-.2a.518.518,0,0,0,.38-.277l.613-1.248a.5.5,0,0,1,.92,0Z" transform="translate(-18.915 -72.894)" fill="#f0f0f0"/>
      <path id="Path_55837" data-name="Path 55837" d="M150.116,164.615l.365.73a.307.307,0,0,0,.226.161l.825.117a.3.3,0,0,1,.161.511l-.591.584a.292.292,0,0,0-.088.263l.139.818a.292.292,0,0,1-.431.314l-.73-.387a.307.307,0,0,0-.277,0l-.73.387a.292.292,0,0,1-.431-.314l.139-.818a.292.292,0,0,0-.088-.263l-.6-.584a.3.3,0,0,1,.168-.511l.825-.117a.307.307,0,0,0,.226-.161l.365-.73a.307.307,0,0,1,.526,0Z" transform="translate(-39.932 -84.552)" fill="#f0f0f0"/>
      <path id="Path_55838" data-name="Path 55838" d="M119.469,295.645l.365.73a.314.314,0,0,0,.226.168l.825.117a.3.3,0,0,1,.168.511l-.6.577a.307.307,0,0,0-.088.27l.146.818a.3.3,0,0,1-.438.314l-.73-.387a.306.306,0,0,0-.277,0l-.73.387a.3.3,0,0,1-.431-.314l.139-.818a.307.307,0,0,0-.08-.27l-.6-.577a.3.3,0,0,1,.161-.511l.825-.117a.3.3,0,0,0,.226-.168l.372-.73a.3.3,0,0,1,.518,0Z" transform="translate(-31.66 -119.926)" fill="#f5f5f5"/>
      <path id="Path_55839" data-name="Path 55839" d="M433.583,76.838l.365.73a.285.285,0,0,0,.226.161l.825.124a.3.3,0,0,1,.168.511l-.6.577a.3.3,0,0,0-.088.263l.146.825a.3.3,0,0,1-.438.314l-.73-.387a.307.307,0,0,0-.277,0l-.73.387a.3.3,0,0,1-.431-.314l.139-.825a.3.3,0,0,0-.08-.263l-.613-.569a.3.3,0,0,1,.161-.511l.825-.124a.277.277,0,0,0,.226-.161l.372-.73a.292.292,0,0,1,.533-.007Z" transform="translate(-116.457 -60.85)" fill="#f5f5f5"/>
      <path id="Path_55840" data-name="Path 55840" d="M424.305,265.529l.635,1.292a.5.5,0,0,0,.387.277l1.46.212a.511.511,0,0,1,.285.876l-1.1,1.007a.533.533,0,0,0-.146.46l.248,1.46a.518.518,0,0,1-.73.54l-1.277-.672a.511.511,0,0,0-.482,0l-1.263.657a.511.511,0,0,1-.73-.54l.241-1.46a.511.511,0,0,0-.146-.46l-1.037-1.007a.518.518,0,0,1,.292-.876l1.424-.212a.5.5,0,0,0,.387-.277l.642-1.292a.518.518,0,0,1,.905.015Z" transform="translate(-113.523 -111.762)" fill="#f0f0f0"/>
      <path id="Path_55841" data-name="Path 55841" d="M317.872,99.531a.971.971,0,1,1-.971-.971A.971.971,0,0,1,317.872,99.531Z" transform="translate(-85.291 -66.76)" fill="#f0f0f0"/>
      <path id="Path_55842" data-name="Path 55842" d="M356.042,357.311a.964.964,0,1,1-.282-.689.971.971,0,0,1,.282.689Z" transform="translate(-95.595 -136.352)" fill="#f5f5f5"/>
      <path id="Path_55843" data-name="Path 55843" d="M129.678,81.774a4.154,4.154,0,1,1-4.154-4.154A4.154,4.154,0,0,1,129.678,81.774Z" transform="translate(-32.766 -61.107)" fill="#f0f0f0"/>
      <path id="Path_55844" data-name="Path 55844" d="M183.85,120.211a43.071,43.071,0,0,0,7.592.65,8.87,8.87,0,0,1-15-2.541,43.868,43.868,0,0,0,7.41,1.891Z" transform="translate(-47.633 -72.094)" fill="#f5f5f5"/>
      <path id="Path_55845" data-name="Path 55845" d="M185.12,108.068a40.992,40.992,0,0,0-8.76-.613,8.877,8.877,0,0,1,17.17,2.92,40.839,40.839,0,0,0-8.41-2.307Z" transform="translate(-47.611 -67.617)" fill="#f5f5f5"/>
      <ellipse id="Ellipse_744" data-name="Ellipse 744" cx="3.066" cy="13.966" rx="3.066" ry="13.966" transform="translate(122.798 43.679) rotate(-80.41)" fill="#f5f5f5"/>
      <path id="Path_55846" data-name="Path 55846" d="M403.644,171.87a57.9,57.9,0,0,1-77.69,25.916c-1.183-.584-2.329-1.2-3.424-1.862A71.543,71.543,0,0,0,356.55,88.23a57.943,57.943,0,0,1,47.094,83.64Z" transform="translate(-87.072 -63.971)" fill="#f5f5f5"/>
      <path id="Path_55847" data-name="Path 55847" d="M393.289,108.381a13.14,13.14,0,0,1,5.315,9.863,33.3,33.3,0,0,0-7.242-7.3,33.9,33.9,0,0,0-9.082-4.8A13.141,13.141,0,0,1,393.289,108.381Z" transform="translate(-103.203 -68.704)" fill="#f0f0f0"/>
      <path id="Path_55848" data-name="Path 55848" d="M373.227,226.051a13.141,13.141,0,0,1-11.1,1.591,33.135,33.135,0,0,0,9.315-4.293,33.853,33.853,0,0,0,7.643-6.87,13.141,13.141,0,0,1-5.862,9.571Z" transform="translate(-97.763 -98.594)" fill="#f0f0f0"/>
      <path id="Path_55849" data-name="Path 55849" d="M401.469,151.442a13.089,13.089,0,0,1,0,11.206,32.9,32.9,0,0,0-2.92-9.834,33.853,33.853,0,0,0-5.709-8.534,13.141,13.141,0,0,1,8.629,7.162Z" transform="translate(-106.054 -79.103)" fill="#f0f0f0"/>
      <path id="Path_55850" data-name="Path 55850" d="M413.822,204.509a13.141,13.141,0,0,1-10.082,4.906,32.938,32.938,0,0,0,7.556-6.935,33.926,33.926,0,0,0,5.183-8.87A13.141,13.141,0,0,1,413.822,204.509Z" transform="translate(-108.996 -92.42)" fill="#f0f0f0"/>
    </g>
    <g id="freepik--Shadow--inject-33" transform="translate(40.962 310.453)">
      <ellipse id="freepik--path--inject-33" cx="141.546" cy="8.264" rx="141.546" ry="8.264" fill="#f5f5f5"/>
    </g>
    <g id="freepik--Rocket--inject-33" transform="translate(78.281 84.2)">
      <path id="Path_55851" data-name="Path 55851" d="M254.161,129.636l-.511-.4c2.3-2.92,4.716-5.665,7.184-8.235l.46.453C258.841,124,256.439,126.76,254.161,129.636Z" transform="translate(-146.758 -102.018)" fill="#407bff"/>
      <rect id="Rectangle_8924" data-name="Rectangle 8924" width="3.789" height="0.642" transform="translate(102.322 32.984) rotate(-51.58)" fill="#407bff"/>
      <path id="Path_55852" data-name="Path 55852" d="M283.015,156.483c15.864-25.5,18.025-50.628,6.475-58.76s-34.48,2.365-53.146,25.894L183,190.9l54.694,38.517Z" transform="translate(-127.685 -94.999)" fill="#407bff"/>
      <path id="Path_55853" data-name="Path 55853" d="M292.18,154.554l-46.43,72.178-5.68-10.856,46.116-65.849c13.038-18.623,20.346-35.64,20.375-45.116a.774.774,0,0,1,1.5-.263C311.35,114.1,305.656,133.609,292.18,154.554Z" transform="translate(-143.092 -97.464)" fill="#fff" opacity="0.1"/>
      <ellipse id="Ellipse_745" data-name="Ellipse 745" cx="23.222" cy="33.45" rx="23.222" ry="33.45" transform="matrix(0.576, -0.818, 0.818, 0.576, 41.906, 114.877)" fill="#407bff"/>
      <ellipse id="Ellipse_746" data-name="Ellipse 746" cx="23.222" cy="33.45" rx="23.222" ry="33.45" transform="matrix(0.576, -0.818, 0.818, 0.576, 41.906, 114.877)" fill="#fff" opacity="0.5"/>
      <path id="Path_55854" data-name="Path 55854" d="M232.4,207.2c-12-8.454-25.617-10.87-34.312-6.921L184.55,217.345c8.03-8.965,25.193-8.352,39.546,1.752s20.726,26.084,14.973,36.648l11.367-18.251C251.414,227.909,244.537,215.739,232.4,207.2Z" transform="translate(-128.104 -122.921)" opacity="0.1"/>
      <path id="Path_55855" data-name="Path 55855" d="M275.339,135.06c-3.329,5.271-5.84,15.134,4.052,22.091s18.331,1.285,22.164-3.65Z" transform="translate(-151.818 -105.814)" opacity="0.2"/>
      <path id="Path_55856" data-name="Path 55856" d="M304.072,145.335c-1.132,9.417-12.016,16.287-23.441,8.242s-8.629-20.609-.146-24.821c5.227-2.614,11.885-1.46,16.44,1.708S304.772,139.495,304.072,145.335Z" transform="translate(-151.998 -103.722)" fill="#fff"/>
      <path id="Path_55857" data-name="Path 55857" d="M283.181,152.324c-4.446-3.125-6.724-7.213-6.4-11.491a10.732,10.732,0,0,1,5.913-8.76c3.971-1.986,9.593-1.365,13.674,1.5s6.57,7.965,6.023,12.374a10.717,10.717,0,0,1-6.227,8.5C292.263,156.222,287.627,155.456,283.181,152.324Z" transform="translate(-152.994 -104.696)" fill="#407bff"/>
      <path id="Path_55858" data-name="Path 55858" d="M283.181,152.324c-4.446-3.125-6.724-7.213-6.4-11.491a10.732,10.732,0,0,1,5.913-8.76c3.971-1.986,9.593-1.365,13.674,1.5s6.57,7.965,6.023,12.374a10.717,10.717,0,0,1-6.227,8.5C292.263,156.222,287.627,155.456,283.181,152.324Z" transform="translate(-152.994 -104.696)" opacity="0.3"/>
      <path id="Path_55859" data-name="Path 55859" d="M283.105,152.749c-4.446-3.125-6.8-7.1-6.629-11.17a9.41,9.41,0,0,1,5.49-8.147c3.818-1.767,9.33-.993,13.411,1.883s6.665,7.8,6.286,11.994a9.4,9.4,0,0,1-5.84,7.914C292.077,156.764,287.551,155.881,283.105,152.749Z" transform="translate(-152.918 -105.121)" fill="#407bff"/>
      <path id="Path_55860" data-name="Path 55860" d="M283.105,152.749c-4.446-3.125-6.8-7.1-6.629-11.17a9.41,9.41,0,0,1,5.49-8.147c3.818-1.767,9.33-.993,13.411,1.883s6.665,7.8,6.286,11.994a9.4,9.4,0,0,1-5.84,7.914C292.077,156.764,287.551,155.881,283.105,152.749Z" transform="translate(-152.918 -105.121)" fill="#fff" opacity="0.2"/>
      <path id="Path_55861" data-name="Path 55861" d="M298.468,138.382l-20.55,9.067a10.469,10.469,0,0,1-1.46-5.687,9.092,9.092,0,0,1,.548-2.752l13.265-5.84a15.426,15.426,0,0,1,8.184,5.227Z" transform="translate(-152.914 -105.304)" fill="#fff" opacity="0.3"/>
      <path id="Path_55862" data-name="Path 55862" d="M302.538,146.986l-18.857,8.308a18.209,18.209,0,0,1-3.081-2.862l20.514-9.052A13.87,13.87,0,0,1,302.538,146.986Z" transform="translate(-154.034 -108.06)" fill="#fff" opacity="0.3"/>
      <path id="Path_55863" data-name="Path 55863" d="M328.281,117.667c-.628-5.037-4.5-10.863-10.615-15.17s-12.9-5.986-17.857-4.884c8.432-3.438,15.988-3.57,21.215.11S328.676,108.571,328.281,117.667Z" transform="translate(-159.22 -94.999)" opacity="0.1"/>
      <ellipse id="Ellipse_747" data-name="Ellipse 747" cx="7.235" cy="10.184" rx="7.235" ry="10.184" transform="matrix(0.576, -0.818, 0.818, 0.576, 75.166, 108.059)" fill="#407bff" opacity="0.5"/>
      <path id="Path_55864" data-name="Path 55864" d="M202.475,241.533c-2.3,3.263-7.892,3.292-12.491.051s-6.468-8.512-4.168-11.775,7.9-3.292,12.5-.051S204.746,238.27,202.475,241.533Z" transform="translate(-128.18 -130.727)" fill="#407bff" opacity="0.5"/>
      <path id="Path_55865" data-name="Path 55865" d="M246.188,272.343c-2.3,3.271-7.892,3.292-12.491.051s-6.461-8.512-4.161-11.775,7.892-3.292,12.491-.051S248.487,269.08,246.188,272.343Z" transform="translate(-139.982 -139.045)" fill="#407bff" opacity="0.5"/>
      <path id="Path_55866" data-name="Path 55866" d="M216.478,268.13c-2.3,3.263-7.892,3.285-12.491.051s-6.461-8.512-4.161-11.783,7.892-3.285,12.491-.051S218.748,264.86,216.478,268.13Z" transform="translate(-131.961 -137.906)" fill="#407bff" opacity="0.5"/>
      <path id="Path_55867" data-name="Path 55867" d="M232.341,245.753a5.183,5.183,0,0,1-.847.934c1.278-3.256-.65-7.775-4.76-10.666s-9.009-3.183-11.644-.891a5.541,5.541,0,0,1,.591-1.1c2.3-3.263,7.9-3.292,12.5-.051S234.633,242.482,232.341,245.753Z" transform="translate(-136.348 -131.867)" fill="#407bff" opacity="0.5"/>
      <path id="Path_55868" data-name="Path 55868" d="M202.623,241.532a5.373,5.373,0,0,1-.84.934c1.278-3.263-.642-7.775-4.76-10.673s-9.009-3.183-11.644-.883a5.343,5.343,0,0,1,.591-1.1c2.3-3.271,7.892-3.292,12.491-.051S204.894,238.261,202.623,241.532Z" transform="translate(-128.328 -130.726)" fill="#407bff" opacity="0.5"/>
      <path id="Path_55869" data-name="Path 55869" d="M246.333,272.349a5.327,5.327,0,0,1-.84.927c1.278-3.263-.65-7.775-4.76-10.666s-9.009-3.19-11.644-.883a5.22,5.22,0,0,1,.591-1.11c2.3-3.271,7.892-3.292,12.491-.051S248.64,269.079,246.333,272.349Z" transform="translate(-140.128 -139.044)" fill="#407bff" opacity="0.5"/>
      <path id="Path_55870" data-name="Path 55870" d="M216.623,268.13a4.825,4.825,0,0,1-.84.927c1.278-3.256-.65-7.775-4.76-10.666s-9.009-3.183-11.644-.883a5.066,5.066,0,0,1,.591-1.11c2.3-3.271,7.892-3.285,12.491-.051S218.894,264.86,216.623,268.13Z" transform="translate(-132.107 -137.906)" fill="#407bff" opacity="0.5"/>
      <path id="Path_55871" data-name="Path 55871" d="M214.635,168.021s-9.855,12.79-18.441,23.8a11.3,11.3,0,0,1-10.374,4.169c-7.5-.927-19.711,4.38-19.711,4.38S189.216,162.414,214.635,168.021Z" transform="translate(-123.125 -114.56)" fill="#407bff"/>
      <path id="Path_55872" data-name="Path 55872" d="M214.635,168.021s-9.855,12.79-18.441,23.8a11.3,11.3,0,0,1-10.374,4.169c-7.5-.927-19.711,4.38-19.711,4.38S189.216,162.414,214.635,168.021Z" transform="translate(-123.125 -114.56)" opacity="0.3"/>
      <path id="Path_55873" data-name="Path 55873" d="M289.274,212.82s-8.68,13.586-16.192,25.376a11.294,11.294,0,0,0-.423,11.17c3.4,6.753,2.511,20.069,2.511,20.069S303.123,234.852,289.274,212.82Z" transform="translate(-151.546 -126.807)" fill="#407bff"/>
      <path id="Path_55874" data-name="Path 55874" d="M289.274,212.82s-8.68,13.586-16.192,25.376a11.294,11.294,0,0,0-.423,11.17c3.4,6.753,2.511,20.069,2.511,20.069S303.123,234.852,289.274,212.82Z" transform="translate(-151.546 -126.807)" opacity="0.3"/>
      <path id="Path_55875" data-name="Path 55875" d="M293.605,325.762c9.118-22.31-30.3-28.632-45.9-23.033s-31.508,9.761-32.121-5.169,11.4-24.186,5.672-27.632c-3.176-1.913-4.081,1.46-5.65,6.38-4.8,15.075-32.012,18.667-19.492,40.488s5.84,17.083-15.221,25.836-10.22,33.961,10.155,33.961h122.7C369.988,376.594,316.74,268.943,293.605,325.762Z" transform="translate(-124.033 -142.077)" fill="#407bff"/>
      <path id="Path_55876" data-name="Path 55876" d="M293.605,325.762c9.118-22.31-30.3-28.632-45.9-23.033s-31.508,9.761-32.121-5.169,11.4-24.186,5.672-27.632c-3.176-1.913-4.081,1.46-5.65,6.38-4.8,15.075-32.012,18.667-19.492,40.488s5.84,17.083-15.221,25.836-10.22,33.961,10.155,33.961h122.7C369.988,376.594,316.74,268.943,293.605,325.762Z" transform="translate(-124.033 -142.077)" fill="#fff" opacity="0.6"/>
      <path id="Path_55877" data-name="Path 55877" d="M173.167,239.338c-1.635-5.68-10.483,1.46-19.2,10.111s-13.016,28.4-21.448,38.692-32.574,19.594-23.135,35.085c13.922,22.828-18.076,44.729,19.82,44.729h77.727c14.214,0,29.625-17.382,7.49-29.2s-55.293,15.74-64.243-10.549c-4.439-13.046,11.681-7.059,4.212-28.42s-6.972-27.179-3.168-36.7C160.479,239.886,175.685,247.967,173.167,239.338Z" transform="translate(-107.23 -133.417)" fill="#407bff"/>
      <path id="Path_55878" data-name="Path 55878" d="M173.167,239.338c-1.635-5.68-10.483,1.46-19.2,10.111s-13.016,28.4-21.448,38.692-32.574,19.594-23.135,35.085c13.922,22.828-18.076,44.729,19.82,44.729h77.727c14.214,0,29.625-17.382,7.49-29.2s-55.293,15.74-64.243-10.549c-4.439-13.046,11.681-7.059,4.212-28.42s-6.972-27.179-3.168-36.7C160.479,239.886,175.685,247.967,173.167,239.338Z" transform="translate(-107.23 -133.417)" fill="#fff" opacity="0.6"/>
      <path id="Path_55879" data-name="Path 55879" d="M200.258,243.029c1.927-3.519,8.541-1.409,8.4,3.2s-17.273,10.644-14.09,26.551,33.757,17.046,40.933,32.983-20.623,18.171-12.33,28.135,33.888-12.922,52.124-7.038S311.748,369,278.3,369H175.225c-22.412,0-38.779-46.277-17.243-65.316s4.161-12.856,12.2-25.055S192.862,256.52,200.258,243.029Z" transform="translate(-118.209 -134.487)" fill="#407bff"/>
      <path id="Path_55880" data-name="Path 55880" d="M200.258,243.029c1.927-3.519,8.541-1.409,8.4,3.2s-17.273,10.644-14.09,26.551,33.757,17.046,40.933,32.983-20.623,18.171-12.33,28.135,33.888-12.922,52.124-7.038S311.748,369,278.3,369H175.225c-22.412,0-38.779-46.277-17.243-65.316s4.161-12.856,12.2-25.055S192.862,256.52,200.258,243.029Z" transform="translate(-118.209 -134.487)" fill="#fff" opacity="0.8"/>
    </g>
  </g>
</svg>
