<svg xmlns="http://www.w3.org/2000/svg" width="56" height="56" viewBox="0 0 56 56">
  <g id="Group_31779" data-name="Group 31779" transform="translate(-1234.5 -1203.828)">
    <g id="Group_31774" data-name="Group 31774">
      <g id="Ellipse_11" data-name="Ellipse 11" transform="translate(1234.5 1203.828)" fill="#fff" stroke="#032b69" stroke-width="1">
        <circle cx="28" cy="28" r="28" stroke="none"/>
        <circle cx="28" cy="28" r="27.5" fill="none"/>
      </g>
      <ellipse id="Ellipse_12" data-name="Ellipse 12" cx="23.5" cy="24" rx="23.5" ry="24" transform="translate(1239.5 1207.828)" fill="rgba(100,149,237,0.2)"/>
      <path id="Icon_awesome-chart-bar" data-name="Icon awesome-chart-bar" d="M14.854,15.926h1.714a.614.614,0,0,0,.571-.571v-6a.614.614,0,0,0-.571-.571H14.854a.614.614,0,0,0-.571.571v6a.614.614,0,0,0,.571.571Zm4.285,0h1.714a.614.614,0,0,0,.571-.571V5.071a.614.614,0,0,0-.571-.571H19.139a.614.614,0,0,0-.571.571V15.355A.614.614,0,0,0,19.139,15.926Zm-12.854,0H8a.614.614,0,0,0,.571-.571V12.213A.614.614,0,0,0,8,11.641H6.284a.614.614,0,0,0-.571.571v3.142a.614.614,0,0,0,.571.571Zm4.285,0h1.714a.614.614,0,0,0,.571-.571V6.5a.614.614,0,0,0-.571-.571H10.569A.614.614,0,0,0,10,6.5v8.855A.614.614,0,0,0,10.569,15.926Zm11.569,2.857H2.857V5.214A.714.714,0,0,0,2.142,4.5H.714A.714.714,0,0,0,0,5.214v15a1.428,1.428,0,0,0,1.428,1.428h20.71a.714.714,0,0,0,.714-.714V19.5A.714.714,0,0,0,22.138,18.783Z" transform="translate(1251.074 1216.878)" fill="#6495ed"/>
    </g>
  </g>
</svg>
