<svg xmlns="http://www.w3.org/2000/svg" width="17.735" height="17.836" viewBox="0 0 17.735 17.836">
  <path id="path" d="M15.668,1161.549l5.067,5.067-1.52,1.52-5.067-5.067v-.811l-.3-.3a6.446,6.446,0,0,1-4.256,1.52,6.12,6.12,0,0,1-4.662-1.926A6.683,6.683,0,0,1,3,1156.887a6.12,6.12,0,0,1,1.925-4.662,6.684,6.684,0,0,1,4.662-1.926,6.274,6.274,0,0,1,4.662,1.926,6.684,6.684,0,0,1,1.925,4.662,6.447,6.447,0,0,1-1.52,4.256l.3.3h.709Zm-9.323-1.317a4.281,4.281,0,0,0,3.243,1.317,4.436,4.436,0,0,0,3.243-1.317,4.65,4.65,0,0,0,0-6.486,4.282,4.282,0,0,0-3.243-1.318,4.437,4.437,0,0,0-3.243,1.318,4.281,4.281,0,0,0-1.317,3.243A4.688,4.688,0,0,0,6.344,1160.232Z" transform="translate(-3 -1150.3)" fill="#0066f4" opacity="0.7"/>
</svg>
