<svg xmlns="http://www.w3.org/2000/svg" xmlns:xlink="http://www.w3.org/1999/xlink" width="299.359" height="266.026" viewBox="0 0 299.359 266.026">
  <defs>
    <linearGradient id="linear-gradient" y1="0.5" x2="1" y2="0.5" gradientUnits="objectBoundingBox">
      <stop offset="0" stop-color="#f0f2f5"/>
      <stop offset="0.99" stop-color="#f5f7f8"/>
    </linearGradient>
    <linearGradient id="linear-gradient-2" y1="0.5" x2="1" y2="0.5" gradientUnits="objectBoundingBox">
      <stop offset="0.01" stop-color="#bbbfd9"/>
      <stop offset="1" stop-color="#d6dbf8"/>
    </linearGradient>
    <linearGradient id="linear-gradient-3" y1="0.5" x2="1" y2="0.5" gradientUnits="objectBoundingBox">
      <stop offset="0.01" stop-color="#bbbfd9"/>
      <stop offset="0.69" stop-color="#cacee2"/>
      <stop offset="1" stop-color="#d3d6e7"/>
    </linearGradient>
    <linearGradient id="linear-gradient-4" y1="0.5" x2="1" y2="0.5" gradientUnits="objectBoundingBox">
      <stop offset="0" stop-color="#d3d6e7"/>
      <stop offset="0.31" stop-color="#cacee2"/>
      <stop offset="0.99" stop-color="#bbbfd9"/>
    </linearGradient>
    <linearGradient id="linear-gradient-5" y1="0.5" y2="0.5" xlink:href="#linear-gradient-3"/>
    <linearGradient id="linear-gradient-6" x1="0.297" y1="1.004" x2="0.755" y2="-0.017" gradientUnits="objectBoundingBox">
      <stop offset="0" stop-color="#753200"/>
      <stop offset="1" stop-color="#a04400"/>
    </linearGradient>
    <linearGradient id="linear-gradient-7" x1="0.357" y1="1.289" x2="0.911" y2="0.263" xlink:href="#linear-gradient-6"/>
    <linearGradient id="linear-gradient-8" x1="0.096" y1="0.372" x2="0.836" y2="0.523" xlink:href="#linear-gradient-6"/>
    <linearGradient id="linear-gradient-9" x1="-0.405" y1="0.629" x2="0.496" y2="0.485" xlink:href="#linear-gradient-6"/>
    <linearGradient id="linear-gradient-10" x1="0.322" y1="0.603" x2="0.975" y2="0.297" gradientUnits="objectBoundingBox">
      <stop offset="0" stop-color="#a04400" stop-opacity="0"/>
      <stop offset="0.18" stop-color="#9a4100" stop-opacity="0.141"/>
      <stop offset="0.52" stop-color="#8a3b00" stop-opacity="0.522"/>
      <stop offset="0.9" stop-color="#753200"/>
    </linearGradient>
    <linearGradient id="linear-gradient-11" x1="0.969" y1="0.216" x2="0.056" y2="1.051" gradientUnits="objectBoundingBox">
      <stop offset="0" stop-color="#a04400"/>
      <stop offset="1" stop-color="#753200"/>
    </linearGradient>
    <linearGradient id="linear-gradient-12" x1="1.018" y1="0.332" x2="0.172" y2="0.614" xlink:href="#linear-gradient-6"/>
    <linearGradient id="linear-gradient-13" x1="-0.001" y1="0.5" x2="1" y2="0.5" gradientUnits="objectBoundingBox">
      <stop offset="0" stop-color="#a96e46"/>
      <stop offset="1" stop-color="#ffd0b9"/>
    </linearGradient>
    <linearGradient id="linear-gradient-14" x1="-0.001" y1="0.5" y2="0.5" xlink:href="#linear-gradient-13"/>
    <linearGradient id="linear-gradient-15" x1="0.981" y1="0.215" x2="0.001" y2="0.995" xlink:href="#linear-gradient-11"/>
    <linearGradient id="linear-gradient-16" x1="-0.022" y1="0.529" x2="1.152" y2="0.421" gradientUnits="objectBoundingBox">
      <stop offset="0" stop-color="#401b00"/>
      <stop offset="1" stop-color="#823700"/>
    </linearGradient>
    <linearGradient id="linear-gradient-17" x1="1.157" y1="0.052" x2="0.179" y2="0.927" gradientUnits="objectBoundingBox">
      <stop offset="0" stop-color="#a04400"/>
      <stop offset="1" stop-color="#3d1b00"/>
    </linearGradient>
    <linearGradient id="linear-gradient-18" x1="0.999" y1="0.315" x2="-0.71" y2="0.947" xlink:href="#linear-gradient-17"/>
    <linearGradient id="linear-gradient-19" x1="0.459" y1="0.957" x2="0.594" y2="0.072" gradientUnits="objectBoundingBox">
      <stop offset="0" stop-color="#823700"/>
      <stop offset="1" stop-color="#401b00"/>
    </linearGradient>
    <linearGradient id="linear-gradient-20" x1="80.53" y1="0.087" x2="80.801" y2="1.011" xlink:href="#linear-gradient-16"/>
    <linearGradient id="linear-gradient-21" x1="1.329" y1="0.5" x2="-0.166" y2="0.5" gradientUnits="objectBoundingBox">
      <stop offset="0.05" stop-color="#f7e5e3"/>
      <stop offset="1" stop-color="#f7d6d2"/>
    </linearGradient>
    <linearGradient id="linear-gradient-22" x1="93.223" y1="0.5" x2="94.223" y2="0.5" xlink:href="#linear-gradient-16"/>
    <linearGradient id="linear-gradient-23" x1="1" y1="0.5" x2="0" y2="0.5" gradientUnits="objectBoundingBox">
      <stop offset="0" stop-color="#201f4f"/>
      <stop offset="0.26" stop-color="#27275a"/>
      <stop offset="0.72" stop-color="#393c76"/>
      <stop offset="1" stop-color="#464b8b"/>
    </linearGradient>
    <linearGradient id="linear-gradient-24" y1="0.5" x2="1" y2="0.5" gradientUnits="objectBoundingBox">
      <stop offset="0.09" stop-color="#d9d9d9"/>
      <stop offset="0.12" stop-color="#d6d6d6"/>
      <stop offset="0.7" stop-color="#aeaeae"/>
      <stop offset="1" stop-color="#9f9f9f"/>
    </linearGradient>
    <linearGradient id="linear-gradient-25" x1="1" y1="0.5" x2="0" y2="0.5" gradientUnits="objectBoundingBox">
      <stop offset="0" stop-color="#a7a5ee"/>
      <stop offset="0.44" stop-color="#9d9ce8"/>
      <stop offset="0.89" stop-color="#8988d5"/>
    </linearGradient>
    <linearGradient id="linear-gradient-26" x1="39.817" y1="0.5" x2="40.817" y2="0.5" xlink:href="#linear-gradient-25"/>
    <linearGradient id="linear-gradient-27" x1="-0.105" y1="0.134" x2="0.875" y2="0.921" xlink:href="#linear-gradient-11"/>
    <linearGradient id="linear-gradient-28" x1="0.946" y1="0.542" x2="-0.235" y2="0.403" xlink:href="#linear-gradient-13"/>
    <linearGradient id="linear-gradient-29" x1="-0.157" y1="0.052" x2="0.82" y2="0.927" gradientUnits="objectBoundingBox">
      <stop offset="0" stop-color="#ffd0b9" stop-opacity="0"/>
      <stop offset="1" stop-color="#a96e46"/>
    </linearGradient>
    <linearGradient id="linear-gradient-30" x1="-0.782" y1="0.067" x2="0.909" y2="0.695" xlink:href="#linear-gradient-13"/>
    <linearGradient id="linear-gradient-31" x1="-0.37" y1="0.854" x2="0.772" y2="0.278" gradientUnits="objectBoundingBox">
      <stop offset="0.28" stop-color="#201f4f"/>
      <stop offset="1" stop-color="#201f4f"/>
    </linearGradient>
    <linearGradient id="linear-gradient-32" x1="0.422" y1="0.93" x2="0.571" y2="0.111" xlink:href="#linear-gradient-31"/>
    <linearGradient id="linear-gradient-33" x1="0" y1="0.5" x2="1.001" y2="0.5" xlink:href="#linear-gradient-31"/>
    <linearGradient id="linear-gradient-34" x1="0" y1="0.5" x2="1" y2="0.5" xlink:href="#linear-gradient-31"/>
    <linearGradient id="linear-gradient-37" x1="0.001" y1="0.5" x2="1" y2="0.5" xlink:href="#linear-gradient-31"/>
    <linearGradient id="linear-gradient-38" x1="0" y1="0.5" x2="0.999" y2="0.5" xlink:href="#linear-gradient-31"/>
    <linearGradient id="linear-gradient-50" x1="-0.001" y1="0.498" x2="1.329" y2="0.498" xlink:href="#linear-gradient-13"/>
    <linearGradient id="linear-gradient-51" x1="-0.243" y1="0.5" x2="0.758" y2="0.5" gradientUnits="objectBoundingBox">
      <stop offset="0" stop-color="#ffd0b9"/>
      <stop offset="1" stop-color="#a96e46"/>
    </linearGradient>
    <linearGradient id="linear-gradient-52" x1="0" y1="0.5" x2="1.203" y2="0.5" xlink:href="#linear-gradient-13"/>
    <linearGradient id="linear-gradient-53" y1="0.501" x2="1" y2="0.501" gradientUnits="objectBoundingBox">
      <stop offset="0" stop-color="#6495ed"/>
      <stop offset="0.11" stop-color="#6495ed"/>
      <stop offset="0.56" stop-color="#6495ed"/>
      <stop offset="1" stop-color="#6495ed"/>
    </linearGradient>
    <linearGradient id="linear-gradient-54" y1="0.5" x2="1" y2="0.5" gradientUnits="objectBoundingBox">
      <stop offset="0" stop-color="#88adf0"/>
      <stop offset="0.44" stop-color="#6495ed"/>
      <stop offset="0.89" stop-color="#88a1d0"/>
      <stop offset="1" stop-color="#85a2d6"/>
    </linearGradient>
    <linearGradient id="linear-gradient-55" y1="0.5" x2="1" y2="0.5" gradientUnits="objectBoundingBox">
      <stop offset="0" stop-color="#6495ed"/>
      <stop offset="0.44" stop-color="#6495ed"/>
      <stop offset="0.89" stop-color="#437de5"/>
      <stop offset="1" stop-color="#8ba5d5"/>
    </linearGradient>
    <linearGradient id="linear-gradient-56" x1="0" y1="0.5" x2="1.001" y2="0.5" xlink:href="#linear-gradient-6"/>
    <linearGradient id="linear-gradient-57" x1="-0.002" y1="0.501" x2="1" y2="0.501" xlink:href="#linear-gradient-6"/>
    <linearGradient id="linear-gradient-58" x1="0.001" y1="0.5" x2="1.001" y2="0.5" xlink:href="#linear-gradient-25"/>
    <linearGradient id="linear-gradient-59" x1="0.001" y1="0.5" x2="1" y2="0.5" gradientUnits="objectBoundingBox">
      <stop offset="0" stop-color="#82aaf2"/>
      <stop offset="0.44" stop-color="#99b3e3"/>
      <stop offset="0.89" stop-color="#8099c7"/>
      <stop offset="1" stop-color="#7798d1"/>
    </linearGradient>
    <linearGradient id="linear-gradient-60" x1="0" y1="0.5" x2="1.001" y2="0.5" xlink:href="#linear-gradient-6"/>
    <linearGradient id="linear-gradient-61" x1="0" y1="0.5" x2="1" y2="0.5" xlink:href="#linear-gradient-25"/>
    <linearGradient id="linear-gradient-62" x1="0" y1="0.5" x2="1" y2="0.5" xlink:href="#linear-gradient-16"/>
    <linearGradient id="linear-gradient-63" x1="0.005" y1="0.276" x2="1.02" y2="0.612" xlink:href="#linear-gradient-31"/>
  </defs>
  <g id="Black_Businessman-26" data-name="Black Businessman-26" transform="translate(-0.629 -0.703)">
    <path id="Path" d="M280.08,128.506C254.614,76.447,181.772.2,87.143,0-11.613-.2-21.165,97.743,32.065,124.966s-24.6,61.165,31.037,95.26c56.314,34.512,176.657,31.28,206.284,4.429S291.083,151.013,280.08,128.506Z" transform="translate(9.005 0.703)" fill="url(#linear-gradient)"/>
    <rect id="Rectangle" width="200.325" height="133.153" rx="14.42" transform="translate(0.629 19.119)" fill="url(#linear-gradient-2)"/>
    <rect id="Rectangle-2" data-name="Rectangle" width="188.931" height="121.728" rx="8.61" transform="translate(6.329 24.834)" fill="#fff"/>
    <rect id="Rectangle-3" data-name="Rectangle" width="89.892" height="47.898" rx="9" transform="translate(31.676 37.5)" fill="#e9ecf5"/>
    <rect id="Rectangle-4" data-name="Rectangle" width="89.892" height="13.043" rx="6.522" transform="translate(31.676 98.173)" fill="#e9ecf5"/>
    <rect id="Rectangle-5" data-name="Rectangle" width="89.892" height="13.043" rx="6.522" transform="translate(31.676 116.906)" fill="#e9ecf5"/>
    <path id="Path-2" data-name="Path" d="M24,0h-.114A23.882,23.882,0,0,0,0,23.728H24Z" transform="translate(131.19 33.051)" fill="#e9ecf5"/>
    <path id="Path-3" data-name="Path" d="M0,0V.154A23.887,23.887,0,0,0,23.882,24.036H24V0Z" transform="translate(135.133 61.401)" fill="#e9ecf5"/>
    <path id="Path-4" data-name="Path" d="M0,0V23.728H23.768A23.882,23.882,0,0,0,0,0Z" transform="translate(159.134 37.673)" fill="#e9ecf5"/>
    <path id="Path-5" data-name="Path" d="M0,0V24.031A23.877,23.877,0,0,0,23.768.154V0Z" transform="translate(159.134 61.401)" fill="#e9ecf5"/>
    <path id="Path-6" data-name="Path" d="M0,.414H50.261" transform="translate(135.128 103.275)" fill="none" stroke="#707070" stroke-linecap="round" stroke-miterlimit="10" stroke-width="10.58"/>
    <path id="Path-7" data-name="Path" d="M0,.414H50.261" transform="translate(135.128 123.016)" fill="none" stroke="#707070" stroke-linecap="round" stroke-miterlimit="10" stroke-width="10.58"/>
    <path id="Path-8" data-name="Path" d="M2.835,0H54.308V75.881H3.912A3.912,3.912,0,0,1,0,71.969V2.82A2.835,2.835,0,0,1,2.835,0Z" transform="translate(225.442 182.499)" fill="url(#linear-gradient-3)"/>
    <path id="Path-9" data-name="Path" d="M0,0H12.7a7.537,7.537,0,0,1,7.537,7.537V71.964a3.912,3.912,0,0,1-3.912,3.912H0Z" transform="translate(279.75 182.499)" fill="#bcc0da"/>
    <path id="Path-10" data-name="Path" d="M0,.414H54.308" transform="translate(225.442 206.692)" fill="none" stroke="#fff" stroke-miterlimit="10" stroke-width="1.99"/>
    <path id="Path-11" data-name="Path" d="M0,.414H54.308" transform="translate(225.442 232.833)" fill="none" stroke="#fff" stroke-miterlimit="10" stroke-width="1.99"/>
    <rect id="Rectangle-6" data-name="Rectangle" width="17.204" height="5.566" rx="2.783" transform="translate(242.646 192.519)" fill="#fff"/>
    <rect id="Rectangle-7" data-name="Rectangle" width="17.204" height="5.566" rx="2.783" transform="translate(242.646 217.647)" fill="#fff"/>
    <rect id="Rectangle-8" data-name="Rectangle" width="17.204" height="5.566" rx="2.783" transform="translate(242.646 242.865)" fill="#fff"/>
    <path id="Path-12" data-name="Path" d="M3.371,0H52.789V26.315H0V3.361A3.376,3.376,0,0,1,3.371,0Z" transform="translate(232.19 156.184)" fill="#aeb1c9"/>
    <path id="Path-13" data-name="Path" d="M0,0H1.35A4.891,4.891,0,0,1,6.241,4.891V21.419A4.891,4.891,0,0,1,1.35,26.31H0Z" transform="translate(284.978 156.184)" fill="#bcc0da"/>
    <path id="Path-14" data-name="Path" d="M0,0H41.826V3.287A5.313,5.313,0,0,1,36.513,8.6H5.3A5.313,5.313,0,0,1,0,3.277V0Z" transform="translate(236.589 156.184)" fill="#dee0ed"/>
    <path id="Path-15" data-name="Path" d="M.083,13.326S-1.1,2.87,5.48,0H30.8s-6.832,5.561-6.41,13.326Z" transform="translate(251.163 142.858)" fill="#fff"/>
    <rect id="Rectangle-9" data-name="Rectangle" width="41.826" height="3.202" rx="1.601" transform="translate(236.574 175.399)" fill="#dee0ed"/>
    <path id="Path-16" data-name="Path" d="M6.37,4.4,5.7,2.334A3.386,3.386,0,0,0,2.483,0H.5L0,4.394Z" transform="translate(275.575 151.78)" fill="#aeb1c9"/>
    <rect id="Rectangle-10" data-name="Rectangle" width="175.907" height="90.776" rx="6.73" transform="translate(0.629 165.236)" fill="url(#linear-gradient-4)"/>
    <rect id="Rectangle-11" data-name="Rectangle" width="162.804" height="77.798" rx="9.24" transform="translate(7.183 171.005)" stroke="#fff" stroke-miterlimit="10" stroke-width="0.8" fill="url(#linear-gradient-5)"/>
    <path id="Path-17" data-name="Path" d="M.414,0V77.291" transform="translate(58.058 171.005)" fill="none" stroke="#fff" stroke-miterlimit="10" stroke-width="1.71"/>
    <path id="Path-18" data-name="Path" d="M.414,0V77.291" transform="translate(115.42 171.005)" fill="none" stroke="#fff" stroke-miterlimit="10" stroke-width="1.71"/>
    <path id="Path-19" data-name="Path" d="M2.368.5,0,6.9.909,13.5l1.773,1.574,7.443-2.234,1.827-2.825L10.044,0,2.368.5Z" transform="translate(201.57 239.171)" fill="url(#linear-gradient-6)"/>
    <path id="Path-20" data-name="Path" d="M3.421,0,.978,4.528,0,11.931l2.483,2.617,7.606-1.589L12.154,10.3,11.112.159,3.421,0Z" transform="translate(227.751 240.501)" fill="url(#linear-gradient-7)"/>
    <path id="Path-21" data-name="Path" d="M1.921,5.377C2.651,4.23,3.739.992,4.22.014,2.5-.194.392,1.916,0,3.42.447,3.48,1.534,4.93,1.921,5.377Z" transform="translate(243.138 35.529)" fill="url(#linear-gradient-8)"/>
    <path id="Path-22" data-name="Path" d="M14.579,50.093c-4.915-.462-9.25-7.5-9.25-7.5a40.028,40.028,0,0,1,0-4.841l1.49-2.87,1.3.362.084-.948c-.382-.05,2.021.427,1.544.308-3.361-.859-8.49-3.644-9.563-9.339-.755-3.972,1.087-7.353,1.375-9.607S1.109,11.683.994,9.116c-.149-3.3,1.629-7.2,3.332-7.969,7.681-3.476,20.2,2.056,20.2,2.056s4.121,2.443,1.331,11.305c.5-.243-.626,1.569,0,1.519a3.873,3.873,0,0,1,3.054.909c1.49,1.455,1.147,4.538-2.567,8.406a1.738,1.738,0,0,1-.134.139,21.082,21.082,0,0,0-.457,2.557,4.035,4.035,0,0,1-.05.4c-.2,1.589-.457,3.649-.7,5.64-.348,2.875-.541,5.362-.631,6.325C24.166,42.744,19.494,50.559,14.579,50.093Z" transform="translate(215.819 22.416)" fill="url(#linear-gradient-9)"/>
    <path id="Path-23" data-name="Path" d="M23.569,14.525C26.355,5.687,22.234,3.2,22.234,3.2S9.712-2.331,2.036,1.149C.829,1.69.432,3.423,0,4.893c3.138-1.951,8.818-.313,13.376.377,2.185.328.919,2.552,1.514,2.736,4.965-.283,7.86,2.547,6.157,9.3l2.483-1.286C23.013,15.97,24.031,14.287,23.569,14.525Z" transform="translate(218.129 22.399)" fill="url(#linear-gradient-10)"/>
    <path id="Path-24" data-name="Path" d="M30.123,19.83a21.894,21.894,0,0,0,.67-5.695c.154-5.169-2.587-8.063-7.472-10.317L18.579,1.975C18.147,1.807,10.109-.924,5.7.327c-1.653.467-4.066,2.026-4.4,3.4C.457,7.2-.1,9.066.015,11.925c3.53-6.7,5.149,2.636,15.978-2.3,1.986-.919.914,2.552,1.49,2.736,5.6-.323,8.575,3.322,5.273,12.08C24.3,24,25.381,23.4,26.23,23.5,27.6,22.5,29.875,20.649,30.123,19.83Z" transform="translate(217.563 15.232)" fill="#1f1844"/>
    <path id="Path-25" data-name="Path" d="M17.51,3.1C12.768,9.27,5.748,11.017,1.458,11.4L.043,10.367c-.387-.045,1.986-.993,1.49-1.107C4.74,7.686,13.692,3.2,18.136,0A1.737,1.737,0,0,1,18,.139,21.082,21.082,0,0,0,17.545,2.7,1.537,1.537,0,0,0,17.51,3.1Z" transform="translate(224.044 47.757)" fill="url(#linear-gradient-11)"/>
    <path id="Path-26" data-name="Path" d="M25.476,2.219c.209-.139.824-.457.824-.457L26.35,0,23.594.953A1.49,1.49,0,0,0,22.6,2.165l-.75,6.112C18.078,9.424,9.17,13.242,7.711,13.093c-1.857-.164-1.872-2.542-2.979-2.279s-1.3,1.643-1.986,1.49A10.437,10.437,0,0,1,0,9.046s.174,4.071.248,4.8C.422,15.526,2.964,19.5,2.964,19.5a1.614,1.614,0,0,0,1.187.794l4.33.586,2.448-.76c3.386-.924,11.916-5.814,12.194-6.723C24.706,8.093,23.41,3.615,25.476,2.219Z" transform="translate(215.885 37.286)" fill="#1f1844"/>
    <path id="Path-27" data-name="Path" d="M0,.729S1.41-.8,2.12.57s-.884,3.391-.884,3.391Z" transform="translate(241.668 40.623)" fill="url(#linear-gradient-12)"/>
    <path id="Path-28" data-name="Path" d="M13.381,5c-2.19,4.181-4.086,7.006-5.928,8.52-2.646,2.18-3.565,11.087-2.79,14.6a.7.7,0,0,1-.179,0C1.653,27.775.467,24.215.765,19A42.858,42.858,0,0,0,0,8.734L6.162,0C8.475,2,9.92,4.156,13.381,5Z" transform="translate(30.41 227.885)" fill="url(#linear-gradient-13)"/>
    <path id="Path-29" data-name="Path" d="M21.35,24.438S12,25.371,9.036,23.187,7.383,17.969,7.075,13.4s-1.8-5.462-1.8-5.462l-3.505,3.58L0,9.717s2.721-4.21,5.059-7.1C6.713.581,9.707.1,11.305,0a42.858,42.858,0,0,1,.765,10.228c-.3,5.218.889,8.778,3.719,9.126,1.281.531,3.227.447,4.618.879C22.422,20.843,21.35,24.438,21.35,24.438Z" transform="translate(19.119 236.628)" fill="#201f4f"/>
    <path id="Path-30" data-name="Path" d="M19.473,18.53H16.549c-2.125,0-7.855-2.7-10.3-5.884s-3.9-3.1-3.9-3.1l-.179-.7L0,0H9.518c.606,2.939,1.683,7.9,2.622,10.744,1.167,3.515,5.506,6.589,6.906,7.5Z" transform="translate(48.746 236.301)" fill="url(#linear-gradient-14)"/>
    <path id="Path-31" data-name="Path" d="M28.062,15.94S11.842,17.4,11.107,15.125,4.985,9.664,4.985,9.664v6.281H2.051A46.175,46.175,0,0,1,0,5.657,11.583,11.583,0,0,1,1.1.4S3.431-1.195,5.879,1.988s7.835,7.448,9.96,7.448h2.939l-.432-.273c3.083,1.122,5.462,2.8,7.75,3.366C29.686,13.413,28.062,15.94,28.062,15.94Z" transform="translate(49.441 245.415)" fill="#201f4f"/>
    <path id="Path-32" data-name="Path" d="M14.4,3.108A20.079,20.079,0,0,1,0,11.8l.04-.775.05-.948C4.225,8.863,9.17,6,14.93,0a1.6,1.6,0,0,1-.124.144,20.908,20.908,0,0,0-.353,2.567A2.637,2.637,0,0,0,14.4,3.108Z" transform="translate(138.693 55.592)" fill="url(#linear-gradient-15)"/>
    <path id="Path-33" data-name="Path" d="M.266,26.983c1.3,5.63,6.509,8.192,9.89,8.907.323.065.631.114.914.149l.392.045-.05.953-.084,1.211-.074,1.072L6.646,69.931a1.415,1.415,0,0,0,2.19,1.49c4.821-3.366,15.551-28.589,15.645-30.287,0,0,.5-2.592,1.182-10.476.04-.5.084-.993.129-1.544,0-.134.025-.268.035-.4.025-.263.06-.586.1-.9a11.837,11.837,0,0,1,.253-1.663,1.122,1.122,0,0,0,.124-.144c1.887-2.13,3.222-4.131,3.3-5.635a6.832,6.832,0,0,0-.238-2.483c-.283-.924-.412-13.639-1.236-14.15C24.709,1.617,20.4,1.681,11.954.152,7.863-.588,4.7,1.547,2.908,2.813,1.547,3.767.922,8.627.817,12.108h0a23.217,23.217,0,0,1,.427,5.263C1.051,19.625-.642,23.061.266,26.983Z" transform="translate(127.3 29.587)" fill="url(#linear-gradient-16)"/>
    <path id="Path-34" data-name="Path" d="M.343,9.225s9.528-1.112,14.25-6.38c.04-.5.084-.993.129-1.544,0-.134.025-.268.035-.4.025-.263.06-.586.1-.9C9.071,4.667,4.156,7.105,0,8.227l.392.045Z" transform="translate(138.37 57.4)" fill="url(#linear-gradient-17)"/>
    <path id="Path-35" data-name="Path" d="M0,.78S1.341-.8,2.1.536s-.74,3.406-.74,3.406Z" transform="translate(152.838 48.462)" fill="url(#linear-gradient-18)"/>
    <path id="Path-36" data-name="Path" d="M9.434,23.351C8.937,24.344,0,21.916,0,21.916l.2-.894L2.766,9.836A46.22,46.22,0,0,0,2.056,0c2.651,1.42,8.411.4,8.411.4s-.536,3.768.079,4.995a3.843,3.843,0,0,1,.283.849,17.571,17.571,0,0,1,.065,5.9c-.233,1.261-.566,5.01-.9,7.85h0A17.79,17.79,0,0,1,9.434,23.351Z" transform="translate(156.195 234.022)" fill="url(#linear-gradient-19)"/>
    <path id="Path-37" data-name="Path" d="M.149,13.217h0L0,13.753c.338-2.84.67-6.589.9-7.85A17.571,17.571,0,0,0,.839,0,4.593,4.593,0,0,1,2.1,3.366,65.481,65.481,0,0,1,.149,13.217Z" transform="translate(166.209 240.283)" fill="#201f4f"/>
    <path id="Path-38" data-name="Path" d="M11.328,8.465c-.844,2.512-4.637,4.891-7.78,4.469C.628,12.512-1.5,8.307,1.338,4.449l-.2.894s8.937,2.408,9.434,1.435a17.79,17.79,0,0,0,.576-3.351h0c.045-.164.417-3.227.5-3.426C11.894,1.8,11.8,7.06,11.328,8.465Z" transform="translate(155.08 250.62)" fill="#201f4f"/>
    <path id="Path-39" data-name="Path" d="M0,21.727c0,.74,3.972,2.631,4.965,2.979S7.979,23.634,7.9,20.918,12.676,7.249,12.924,6.589c.179-.5-.258-.993-.5-1.256-.089-.089-.154-.144-.154-.144l.66-3.3L3.962,0s-.581,5.188-.914,6.673-.243,4.037-.74,6.648c-.452,2.373-1.986,6.752-2.264,8.1a1.683,1.683,0,0,0-.045.3Z" transform="translate(125.093 232.572)" fill="url(#linear-gradient-20)"/>
    <path id="Path-40" data-name="Path" d="M.2,23.644c1.316.9,7.323-.5,10.213-1.157s3.044-5.462,3.207-7.244a16.12,16.12,0,0,1,2.249-4.583h0c.765-1.241,1.609-2.532,2.344-3.629h0l.824-1.251a2.577,2.577,0,0,0,.348-2.085A5.835,5.835,0,0,0,16.979,0c.248.243.685.77.5,1.256-.248.66-5.1,11.608-5.025,14.329s-1.917,4.121-2.934,3.788-4.965-2.224-4.965-2.979a1.683,1.683,0,0,1,.045-.318C2.66,18.217-.871,22.909.2,23.644Z" transform="translate(120.537 237.904)" fill="#201f4f"/>
    <path id="Path-41" data-name="Path" d="M0,10.521H1.117L2.582,0C1.847,1.1,1,2.388.238,3.629h0Z" transform="translate(136.17 244.93)" fill="#201f4f"/>
    <path id="Path-42" data-name="Path" d="M5.345.323C-1.769,21.7.271,65.087.271,65.087l4.181,51.82H15.608c2.731-31.33-.844-50.147-.844-50.147l4.007-34.388,5.571,35.053,9.19,49.482H44.887c.338-8.351-1.842-29.224-6.186-51.14,3.341-19.364,4.186-24.1,2.85-40.714S31.864,0,31.864,0Z" transform="translate(123.665 118.902)" fill="url(#linear-gradient-21)"/>
    <path id="Path-43" data-name="Path" d="M16.365,0,7.681,6.678,0,28.39V61.453l25.62-2.711L20.953,47.451l4.1-20.9,11.022,18.54L31.394,57.783l7.353,6.683L48.881,45.425S45.093,12.358,16.365,0Z" transform="translate(136.136 69.455)" fill="#201f4f"/>
    <path id="Path-44" data-name="Path" d="M32.278,0l.2.993L33.4,5.556,30.277,29.388V62.451L17.8,60.986S24.259,40.3,23.152,38.072s-3.341-9.349-3.341-9.349L4.667,40.346A2.483,2.483,0,0,1,.7,38.564L0,29.393S20.436,14.746,22,7.17C30.277,1.658,32.278,0,32.278,0Z" transform="translate(105.859 68.452)" fill="#201f4f"/>
    <path id="Path-45" data-name="Path" d="M5.193,0,2.89,4.22,0,5.71,1.837,16.136s3.893-2.4,4.9-4.4.586-2.84.586-2.84l3.039-4.205Z" transform="translate(163.374 128.196)" fill="url(#linear-gradient-22)"/>
    <path id="Path-46" data-name="Path" d="M16.365,0h4.588L20.59,5.606,13.435,8.029l.66,4.344L0,28.39,7.681,6.678,16.365,0Z" transform="translate(136.136 69.455)" fill="url(#linear-gradient-23)"/>
    <path id="Shape" d="M17.532,109.733a108.181,108.181,0,0,1-2.88-11.191,39.887,39.887,0,0,0-4.965,9.18,8.512,8.512,0,0,1-1.569-.238,12.415,12.415,0,0,1-5.03-2.761A18.353,18.353,0,0,1,0,101.272s4.931-9.344,11.529-20.491C9.592,67.331,8.346,51.19,4.081,32.7.641,17.681,3.868,3.972,5.571,0,10.7,1.609,17.338,4.935,28.6,4.33c1.872-.094,3.54-1.986,5.243-2.364a19.886,19.886,0,0,1,6.436-.626A5.065,5.065,0,0,0,42.824,1.1c1.038,13.932,10.754,48.107,6.157,56.368C45.54,63.657,36.717,70.737,24.19,86c1.341,13.336,3.356,23.733,3.356,23.733Z" transform="translate(32.197 131.677)" fill="url(#linear-gradient-24)"/>
    <path id="Path-47" data-name="Path" d="M43.33,27.223a71.661,71.661,0,0,1-11.916,3.709,33.062,33.062,0,0,1-5.377.69C14.771,32.228,5.129,28.41,0,26.8,1.077,24.135,7.224,7.1,6.757,3.654c1.49,1.49-.616.6,1.063,1.241.109.035.209.079.313.114,7.889,2.934,13.9,3.4,19.17-1.365C28.579,2.5,29.686,1.44,30.629.5A36.707,36.707,0,0,0,38.166,0a22.929,22.929,0,0,0-.288,9.339C39.2,15.809,42.789,25.7,43.33,27.223Z" transform="translate(34.789 104.384)" fill="#d5527e"/>
    <path id="Path-48" data-name="Path" d="M18.728,0s2.259.993-2.036,10.923c-.993,2.324-5.556,3.7-10,3.58S.333,13.7.025,12.467,2.373,7.254,2.373,7.254Z" transform="translate(221.912 252.219)" fill="#1f1844"/>
    <path id="Path-49" data-name="Path" d="M17.5,5.865s.04-2.115-.919-2.607c-.447,2.483-1.653.556-3.029-.849C12.368,1.188,11.891.185,9.622.011S6.643,1.68,5.685,2.41C4,3.706,3.967,2.941,3.431,4.843c-.5,1.683-1.941,7.83-3.242,10.3A1.46,1.46,0,0,0,.4,16.863c2.105,2.08,6.877,1.326,9.483.889a8.237,8.237,0,0,0,6.792-6.291C17.829,7.514,17.5,5.865,17.5,5.865Z" transform="translate(223.099 245.365)" fill="url(#linear-gradient-25)"/>
    <path id="Path-50" data-name="Path" d="M32.118,0V2.85A2.026,2.026,0,0,1,30.37,4.861c-1.986.278-5.213.745-6.951,1.087-2.656.521-9.007,2.83-12.586,3.058s-7.621.288-9.409-.864S.039,4.275.039,4.275Z" transform="translate(182.411 253.907)" fill="#1f1844"/>
    <path id="Path-51" data-name="Path" d="M31.067,3.294s1.847,7.04.809,8.078-8.833,1.559-10.923,2.89S10.393,17.668,5.89,17.321.115,16.4,0,15.186s8.937-2.89,10.561-4.1,2.6-5.462,4.851-6.926S15.909.117,18.3,0,20.03,3.7,23.555,3.925A31.627,31.627,0,0,0,31.067,3.294Z" transform="translate(182.429 242.996)" fill="url(#linear-gradient-26)"/>
    <path id="Path-52" data-name="Path" d="M.516,3.123a20.163,20.163,0,0,0,14.5,8.739l-.045-.775-.045-.953C10.764,8.907,5.789,6.028,0,0L.124.144A20.7,20.7,0,0,1,.482,2.721,2.239,2.239,0,0,0,.516,3.123Z" transform="translate(41.968 57.543)" fill="url(#linear-gradient-27)"/>
    <path id="Path-53" data-name="Path" d="M29.053,24.3c-1.3,5.66-6.549,8.232-9.93,8.937-.328.06-.636.114-.919.144a2.879,2.879,0,0,1-.392.045l.045.958.089,1.216.074,1.082,1.385,17.254a1.425,1.425,0,0,1-2.2,1.49C12.355,52.043,4.352,43.771,4.257,42.058c0,0-.055-6.137-.74-14.066-.04-.5-.084-.993-.129-1.549a1.518,1.518,0,0,0-.035-.4,8.368,8.368,0,0,0-.1-.914A10.923,10.923,0,0,0,3,23.459a1.654,1.654,0,0,1-.124-.139A15.888,15.888,0,0,1,.5,19.924a5.02,5.02,0,0,1-.278-3.679h0a3.972,3.972,0,0,1,1.683-2.274C5.349,11.836,6.874-6.7,20.751,2.591c.69-.189,4.032-1.405,5.844-.129,1.365.953,1.246,3.808,1.9,6.9h0a23.735,23.735,0,0,0-.432,5.288C28.263,16.9,29.966,20.351,29.053,24.3Z" transform="translate(39.096 34.229)" fill="url(#linear-gradient-28)"/>
    <path id="Path-54" data-name="Path" d="M14.587,9.275S5.015,8.158.263,2.86c-.04-.5-.084-.993-.129-1.549A1.518,1.518,0,0,0,.1.914,8.368,8.368,0,0,0,0,0C5.814,4.7,10.754,7.145,14.935,8.272a2.88,2.88,0,0,1-.392.045Z" transform="translate(42.351 59.356)" fill="url(#linear-gradient-29)"/>
    <path id="Path-55" data-name="Path" d="M2.326.786S.981-.8.216.538.961,3.964.961,3.964Z" transform="translate(40.412 50.373)" fill="url(#linear-gradient-30)"/>
    <path id="Path-56" data-name="Path" d="M28.536,15.082c-.06.665-.144,1.326-.233,1.986-.3-1.147-1.713-5.089-2.979-6.152-.894-.75-1.643,1.49-2.89.928-2.17-.948-2.483-1.658-5.213-1.405a25.575,25.575,0,0,1-3.351.993c-1.226.218-1.773-1.311-2.051,0s-.268,3.093-1.773,3.093a2.444,2.444,0,0,0-2.6,1.912c-.114.958,2.4,4.394,1.127,5.238-1.455.993-2.507,4.578-2.507,4.578S4.307,19.9.727,22.564c-.993-3.088-.68-3.659-.68-7.413A46.359,46.359,0,0,1,.677,8.329C2.47,1.428,11.526-.345,17.34.052S29.092,8.612,28.536,15.082Z" transform="translate(39.29 26.509)" fill="url(#linear-gradient-31)"/>
    <path id="Path-57" data-name="Path" d="M0,0,1.2.243a.655.655,0,0,1,.467.377l.154.353a.65.65,0,0,0,.621.387l.884-.05a.65.65,0,0,1,.65.819l-.05.164a.645.645,0,0,0,.576.814l.531.035a.655.655,0,0,1,.6.685v.124a.65.65,0,0,0,.417.64,13.128,13.128,0,0,1,1.787.775c.079.1-.169.7-.377,1.152a.631.631,0,0,0,.278.8c.586.338,1.455.889,1.316,1.152A9.379,9.379,0,0,1,7.765,9.791a.621.621,0,0,0,.119.963l.874.566a.616.616,0,0,1,.129.943l-.854.849a.606.606,0,0,0,.065.894l.993.859a.636.636,0,0,1,.164.77L8.52,16.976a.626.626,0,0,0,0,.541l.834,1.8" transform="translate(32.475 14.789)" fill="none" stroke="#201f4f" stroke-linecap="round" stroke-miterlimit="10" stroke-width="4.66"/>
    <path id="Path-58" data-name="Path" d="M0,.24,1.2.011A.66.66,0,0,1,1.773.18l.278.268a.65.65,0,0,0,.72.124L3.57.2a.645.645,0,0,1,.914.5V.861a.64.64,0,0,0,.839.536l.5-.169a.655.655,0,0,1,.814.407l.035.114a.66.66,0,0,0,.631.442,12.184,12.184,0,0,1,1.946.035c.114.06.109.715.089,1.211a.631.631,0,0,0,.556.636c.675.089,1.683.268,1.658.566a9.24,9.24,0,0,1-.69,1.708.616.616,0,0,0,.5.844l.993.194a.611.611,0,0,1,.5.824l-.5,1.112a.611.611,0,0,0,.4.8l1.266.407a.626.626,0,0,1,.442.65L14.289,12.7a.6.6,0,0,0,.2.5l1.45,1.35" transform="translate(33.2 18.79)" fill="none" stroke="#201f4f" stroke-linecap="round" stroke-miterlimit="10" stroke-width="4.66"/>
    <path id="Path-59" data-name="Path" d="M0,0,1.2.243a.655.655,0,0,1,.467.377l.154.353a.655.655,0,0,0,.626.387l.879-.045a.645.645,0,0,1,.65.814l-.05.164a.645.645,0,0,0,.576.814l.536.04a.645.645,0,0,1,.6.685v.119a.64.64,0,0,0,.417.64,13.406,13.406,0,0,1,1.787.775c.079.1-.174.7-.382,1.152a.631.631,0,0,0,.278.8c.591.338,1.455.889,1.316,1.157A9.29,9.29,0,0,1,7.765,9.791a.616.616,0,0,0,.114.963l.874.566a.611.611,0,0,1,.134.943l-.859.849a.611.611,0,0,0,.065.894l.993.859a.621.621,0,0,1,.164.77l-.73,1.346a.586.586,0,0,0,0,.536l.829,1.8" transform="translate(37.584 12.451)" fill="none" stroke="#201f4f" stroke-linecap="round" stroke-miterlimit="10" stroke-width="4.66"/>
    <path id="Path-60" data-name="Path" d="M0,0,1.048.621a.64.64,0,0,1,.318.5l.035.377a.645.645,0,0,0,.457.576l.849.243a.645.645,0,0,1,.348.993l-.1.139a.645.645,0,0,0,.278.958l.5.209a.655.655,0,0,1,.343.844l-.05.109a.645.645,0,0,0,.184.745A12.1,12.1,0,0,1,5.64,7.631c.045.114-.387.6-.735.963a.631.631,0,0,0,0,.844c.447.5,1.082,1.316.864,1.519a8.743,8.743,0,0,1-1.643.829.616.616,0,0,0-.2.943l.64.824a.616.616,0,0,1-.184.933l-1.087.521a.611.611,0,0,0-.233.869l.68,1.147a.621.621,0,0,1-.094.775L2.512,18.832a.6.6,0,0,0-.189.5l.2,1.986" transform="translate(42.226 11.453)" fill="none" stroke="#201f4f" stroke-linecap="round" stroke-miterlimit="10" stroke-width="4.66"/>
    <path id="Path-61" data-name="Path" d="M9.364,0,8.158.238a.645.645,0,0,0-.467.377L7.532.968a.645.645,0,0,1-.621.387l-.879-.05a.645.645,0,0,0-.65.819l.05.164a.65.65,0,0,1-.576.814l-.536.035a.655.655,0,0,0-.6.685v.124a.65.65,0,0,1-.417.64,12.785,12.785,0,0,0-1.787.775c-.079.1.174.7.377,1.152a.636.636,0,0,1-.273.8C1.028,7.651.164,8.2.3,8.465A9.007,9.007,0,0,0,1.584,9.786a.616.616,0,0,1-.119.958L.6,11.315a.611.611,0,0,0-.134.943l.859.849a.611.611,0,0,1-.07.894l-.993.859a.626.626,0,0,0-.159.77l.73,1.341a.6.6,0,0,1,0,.541L0,19.314" transform="translate(42.738 11.959)" fill="none" stroke="#201f4f" stroke-linecap="round" stroke-miterlimit="10" stroke-width="4.66"/>
    <path id="Path-62" data-name="Path" d="M5.807,0,4.769.621a.66.66,0,0,0-.318.5l-.03.382a.645.645,0,0,1-.462.571l-.849.243a.645.645,0,0,0-.343.993l.1.134A.65.65,0,0,1,2.59,4.4l-.5.209a.65.65,0,0,0-.343.844l.045.109a.65.65,0,0,1-.184.745A13.083,13.083,0,0,0,.177,7.626c-.04.119.392.606.735.993a.631.631,0,0,1,0,.844c-.447.5-1.082,1.316-.869,1.519a9.434,9.434,0,0,0,1.643.829.611.611,0,0,1,.2.943l-.636.824a.611.611,0,0,0,.184.933l1.087.521a.611.611,0,0,1,.228.869l-.68,1.142a.626.626,0,0,0,.1.78L3.3,18.852a.631.631,0,0,1,.189.5l-.2,1.986" transform="translate(41.658 10.961)" fill="none" stroke="#201f4f" stroke-linecap="round" stroke-miterlimit="10" stroke-width="4.66"/>
    <path id="Path-63" data-name="Path" d="M9.359,0l-1.2.243A.655.655,0,0,0,7.7.621L7.542.968a.65.65,0,0,1-.621.392l-.884-.05a.65.65,0,0,0-.65.819l.05.159a.645.645,0,0,1-.576.819l-.531.035a.65.65,0,0,0-.6.685v.119a.65.65,0,0,1-.422.645,12.457,12.457,0,0,0-1.787.775c-.074.094.174.7.382,1.152a.631.631,0,0,1-.278.8C1.033,7.656.169,8.207.308,8.47A9.007,9.007,0,0,0,1.589,9.791a.611.611,0,0,1-.114.958L.6,11.315a.616.616,0,0,0-.134.948l.859.844a.611.611,0,0,1-.065.9L.268,14.9a.626.626,0,0,0-.164.77l.73,1.341a.611.611,0,0,1,0,.541L0,19.344" transform="translate(48.145 15.673)" fill="none" stroke="#201f4f" stroke-linecap="round" stroke-miterlimit="10" stroke-width="4.66"/>
    <path id="Path-64" data-name="Path" d="M5.814,0,4.766.621a.645.645,0,0,0-.318.5l-.03.382a.655.655,0,0,1-.462.571l-.849.243a.645.645,0,0,0-.348.993l.1.139a.645.645,0,0,1-.278.958l-.5.209a.655.655,0,0,0-.343.844l.05.114a.65.65,0,0,1-.184.745A11.757,11.757,0,0,0,.173,7.631c-.045.119.387.606.735.963a.631.631,0,0,1,0,.844c-.447.5-1.082,1.316-.864,1.524a9.111,9.111,0,0,0,1.643.824.621.621,0,0,1,.2.948l-.64.819a.621.621,0,0,0,.184.938l1.087.5a.611.611,0,0,1,.233.869l-.68,1.147a.626.626,0,0,0,.094.78L3.3,18.813a.6.6,0,0,1,.189.5l-.2,1.986" transform="translate(48.344 13.191)" fill="none" stroke="#201f4f" stroke-linecap="round" stroke-miterlimit="10" stroke-width="4.66"/>
    <path id="Path-65" data-name="Path" d="M9.354,0l-1.2.243a.66.66,0,0,0-.467.382L7.537.973a.655.655,0,0,1-.626.392l-.879-.05a.64.64,0,0,0-.65.814l.05.164a.645.645,0,0,1-.576.814l-.536.04a.655.655,0,0,0-.6.685v.119A.65.65,0,0,1,3.3,4.6a12.909,12.909,0,0,0-1.787.77c-.079.1.174.7.377,1.157a.636.636,0,0,1-.273.8C1.028,7.661.164,8.212.3,8.475A9.538,9.538,0,0,0,1.584,9.8a.616.616,0,0,1-.119.958L.6,11.32a.616.616,0,0,0-.134.948l.859.844a.616.616,0,0,1-.07.9l-.993.859a.616.616,0,0,0-.159.765l.73,1.346a.6.6,0,0,1,0,.541L0,19.319" transform="translate(50.975 18.344)" fill="none" stroke="#201f4f" stroke-linecap="round" stroke-miterlimit="10" stroke-width="4.66"/>
    <path id="Path-66" data-name="Path" d="M17.412.505,16.246.157a.65.65,0,0,0-.591.109l-.3.238a.655.655,0,0,1-.73.05L13.867.093a.64.64,0,0,0-.958.412l-.035.164a.645.645,0,0,1-.894.447L11.484.9a.66.66,0,0,0-.854.318l-.05.114a.645.645,0,0,1-.67.367,12.909,12.909,0,0,0-1.941-.164c-.114.05-.179.7-.213,1.192a.631.631,0,0,1-.621.576c-.68,0-1.7.094-1.7.392a9.2,9.2,0,0,0,.5,1.773.621.621,0,0,1-.561.789L4.33,6.339a.616.616,0,0,0-.561.77L4.121,8.26a.606.606,0,0,1-.5.76l-1.3.273a.621.621,0,0,0-.5.6v1.529a.6.6,0,0,1-.243.5L0,13.111" transform="translate(44.103 22.432)" fill="none" stroke="#201f4f" stroke-linecap="round" stroke-miterlimit="10" stroke-width="4.66"/>
    <path id="Path-67" data-name="Path" d="M5.822,0,4.774.621a.645.645,0,0,0-.318.5L4.422,1.5a.645.645,0,0,1-.457.571l-.849.243a.645.645,0,0,0-.348.993l.1.139A.645.645,0,0,1,2.59,4.4l-.5.209a.65.65,0,0,0-.343.844l.05.114a.655.655,0,0,1-.184.745A12.323,12.323,0,0,0,.177,7.631c-.04.119.392.606.735.963a.631.631,0,0,1,0,.844c-.447.5-1.082,1.321-.869,1.524a9.468,9.468,0,0,0,1.643.824.616.616,0,0,1,.2.948l-.636.819a.616.616,0,0,0,.184.938l1.087.5a.616.616,0,0,1,.233.869l-.68,1.147a.626.626,0,0,0,.094.78L3.3,18.813a.6.6,0,0,1,.189.5l-.2,1.986" transform="translate(49.88 17.346)" fill="none" stroke="#201f4f" stroke-linecap="round" stroke-miterlimit="10" stroke-width="4.66"/>
    <path id="Path-68" data-name="Path" d="M0,.24,1.2.011a.65.65,0,0,1,.576.174l.278.263a.64.64,0,0,0,.72.124L3.57.2a.65.65,0,0,1,.914.5V.865a.645.645,0,0,0,.839.536l.5-.169a.65.65,0,0,1,.814.407l.035.114a.655.655,0,0,0,.631.437,12.909,12.909,0,0,1,1.951.035c.109.065.1.715.084,1.211a.631.631,0,0,0,.556.636c.675.089,1.683.273,1.658.566a9.24,9.24,0,0,1-.69,1.708.616.616,0,0,0,.5.844l1.023.194a.616.616,0,0,1,.5.829l-.5,1.107a.611.611,0,0,0,.4.8l1.266.407a.621.621,0,0,1,.442.65L14.319,12.7a.6.6,0,0,0,.2.5l1.45,1.35" transform="translate(36.402 15.101)" fill="none" stroke="#201f4f" stroke-linecap="round" stroke-miterlimit="10" stroke-width="4.66"/>
    <path id="Path-69" data-name="Path" d="M0,.244,1.2.011A.665.665,0,0,1,1.773.18l.278.268a.655.655,0,0,0,.725.119L3.57.185a.645.645,0,0,1,.914.5V.85a.645.645,0,0,0,.844.531l.5-.169a.655.655,0,0,1,.819.4l.035.114a.655.655,0,0,0,.636.437A12.373,12.373,0,0,1,9.26,2.2c.109.06.109.71.089,1.211a.631.631,0,0,0,.561.631c.675.084,1.688.263,1.658.561a9.2,9.2,0,0,1-.68,1.713.611.611,0,0,0,.5.839l1.023.189a.616.616,0,0,1,.5.824l-.467,1.112a.606.606,0,0,0,.4.8l1.271.407a.621.621,0,0,1,.442.645l-.159,1.519a.606.606,0,0,0,.194.5l1.46,1.341" transform="translate(30.186 21.238)" fill="none" stroke="#201f4f" stroke-linecap="round" stroke-miterlimit="10" stroke-width="4.66"/>
    <path id="Path-70" data-name="Path" d="M0,1.708l1.023-.67a.65.65,0,0,1,.6-.06l.357.139A.65.65,0,0,0,2.691.953L3.282.3A.645.645,0,0,1,4.32.417L4.4.571a.645.645,0,0,0,.993.174L5.8.392a.645.645,0,0,1,.9.065l.079.089a.645.645,0,0,0,.75.164A12.581,12.581,0,0,1,9.349,0c.124,0,.367.616.541,1.087a.636.636,0,0,0,.76.372c.655-.179,1.658-.4,1.748-.109a9.642,9.642,0,0,1,0,1.837.611.611,0,0,0,.76.6l.993-.213a.616.616,0,0,1,.76.576V5.357a.611.611,0,0,0,.68.591l1.326-.109a.626.626,0,0,1,.66.432L18,7.76a.591.591,0,0,0,.372.387l1.857.7" transform="translate(30.196 22.902)" fill="none" stroke="#201f4f" stroke-linecap="round" stroke-miterlimit="10" stroke-width="4.66"/>
    <path id="Path-71" data-name="Path" d="M0,4.047l.814-.909a.665.665,0,0,1,.566-.213l.377.045a.65.65,0,0,0,.65-.343l.4-.784a.645.645,0,0,1,1.033-.149l.119.124a.64.64,0,0,0,.993-.084l.3-.442a.655.655,0,0,1,.894-.174l.1.07a.64.64,0,0,0,.765-.035A12.715,12.715,0,0,1,8.585,0c.124,0,.5.5.8.909a.636.636,0,0,0,.829.164c.591-.338,1.49-.809,1.658-.556a9.175,9.175,0,0,1,.5,1.773.611.611,0,0,0,.884.382L14.19,2.2a.616.616,0,0,1,.884.367l.3,1.167a.606.606,0,0,0,.8.392l1.256-.442a.616.616,0,0,1,.745.243l.789,1.311a.616.616,0,0,0,.462.283l1.986.189" transform="translate(30.807 24.451)" fill="none" stroke="#201f4f" stroke-linecap="round" stroke-miterlimit="10" stroke-width="4.66"/>
    <path id="Path-72" data-name="Path" d="M0,6.7l.531-1.1a.65.65,0,0,1,.5-.362L1.4,5.179a.645.645,0,0,0,.531-.5L2.1,3.813a.65.65,0,0,1,.953-.427l.144.089a.65.65,0,0,0,.933-.362l.164-.5A.655.655,0,0,1,5.109,2.2l.114.035a.645.645,0,0,0,.725-.248A13.649,13.649,0,0,1,7.135.447c.114-.05.636.338,1.028.65A.621.621,0,0,0,9,1.028c.5-.5,1.221-1.192,1.44-.993A9.175,9.175,0,0,1,11.435,1.6a.611.611,0,0,0,.958.124l.765-.71a.616.616,0,0,1,.948.1l.611,1.038a.616.616,0,0,0,.889.159l1.077-.78a.626.626,0,0,1,.784.03L18.594,2.6a.586.586,0,0,0,.5.144l1.951-.362" transform="translate(29.898 27.837)" fill="none" stroke="#201f4f" stroke-linecap="round" stroke-miterlimit="10" stroke-width="4.66"/>
    <path id="Path-73" data-name="Path" d="M0,6.693.531,5.6a.66.66,0,0,1,.5-.362l.377-.06a.655.655,0,0,0,.531-.5l.169-.864a.645.645,0,0,1,.953-.432l.144.089a.65.65,0,0,0,.933-.357l.164-.5A.655.655,0,0,1,5.114,2.2l.114.035A.645.645,0,0,0,5.953,2,12.76,12.76,0,0,1,7.14.452C7.254.4,7.775.789,8.168,1.1a.621.621,0,0,0,.839-.07c.5-.5,1.221-1.192,1.44-.993A9.175,9.175,0,0,1,11.44,1.6a.611.611,0,0,0,.958.124l.765-.71a.621.621,0,0,1,.948.1l.611,1.043a.611.611,0,0,0,.884.154l1.082-.78a.626.626,0,0,1,.784.035l1.122,1.038a.6.6,0,0,0,.5.139l1.951-.362" transform="translate(30.966 32.197)" fill="none" stroke="#201f4f" stroke-linecap="round" stroke-miterlimit="10" stroke-width="4.66"/>
    <path id="Path-74" data-name="Path" d="M0,6.7.526,5.6a.66.66,0,0,1,.5-.357L1.4,5.18a.65.65,0,0,0,.531-.5L2.1,3.815a.645.645,0,0,1,.953-.432l.144.089a.645.645,0,0,0,.933-.357l.164-.5A.65.65,0,0,1,5.109,2.2l.114.04a.65.65,0,0,0,.725-.248A12.76,12.76,0,0,1,7.135.448c.114-.055.636.338,1.028.65A.636.636,0,0,0,9,1.029c.5-.5,1.221-1.2,1.44-.993a9.473,9.473,0,0,1,.968,1.569.616.616,0,0,0,.958.119l.765-.705a.611.611,0,0,1,.948.1l.611,1.038a.611.611,0,0,0,.884.154l1.082-.775a.621.621,0,0,1,.784.03l1.122,1.038a.616.616,0,0,0,.521.144l1.951-.367" transform="translate(34.198 35.78)" fill="none" stroke="#201f4f" stroke-linecap="round" stroke-miterlimit="10" stroke-width="4.66"/>
    <circle id="Oval" cx="11.36" cy="11.36" r="11.36" transform="translate(35.578 14.263)" fill="url(#linear-gradient-32)"/>
    <circle id="Oval-2" data-name="Oval" cx="2.492" cy="2.492" r="2.492" transform="translate(35.901 30.792)" fill="url(#linear-gradient-33)"/>
    <circle id="Oval-3" data-name="Oval" cx="2.492" cy="2.492" r="2.492" transform="translate(36.492 35.28)" fill="url(#linear-gradient-34)"/>
    <circle id="Oval-4" data-name="Oval" cx="2.492" cy="2.492" r="2.492" transform="translate(36.79 39.625)" fill="url(#linear-gradient-33)"/>
    <circle id="Oval-5" data-name="Oval" cx="2.492" cy="2.492" r="2.492" transform="translate(37.917 43.795)" fill="url(#linear-gradient-34)"/>
    <circle id="Oval-6" data-name="Oval" cx="2.209" cy="2.209" r="2.209" transform="translate(54.361 25.35)" fill="url(#linear-gradient-37)"/>
    <circle id="Oval-7" data-name="Oval" cx="2.209" cy="2.209" r="2.209" transform="translate(54.773 22.108)" fill="url(#linear-gradient-38)"/>
    <circle id="Oval-8" data-name="Oval" cx="2.209" cy="2.209" r="2.209" transform="translate(54.773 18.796)" fill="url(#linear-gradient-38)"/>
    <circle id="Oval-9" data-name="Oval" cx="2.209" cy="2.209" r="2.209" transform="translate(52.564 16.214)" fill="url(#linear-gradient-34)"/>
    <circle id="Oval-10" data-name="Oval" cx="2.209" cy="2.209" r="2.209" transform="translate(49.888 14.005)" fill="url(#linear-gradient-34)"/>
    <circle id="Oval-11" data-name="Oval" cx="2.209" cy="2.209" r="2.209" transform="translate(45.811 13.086)" fill="url(#linear-gradient-37)"/>
    <circle id="Oval-12" data-name="Oval" cx="2.209" cy="2.209" r="2.209" transform="translate(42.5 13.086)" fill="url(#linear-gradient-38)"/>
    <circle id="Oval-13" data-name="Oval" cx="2.209" cy="2.209" r="2.209" transform="translate(39.669 14.382)" fill="url(#linear-gradient-37)"/>
    <circle id="Oval-14" data-name="Oval" cx="2.209" cy="2.209" r="2.209" transform="translate(36.775 15.713)" fill="url(#linear-gradient-38)"/>
    <circle id="Oval-15" data-name="Oval" cx="2.209" cy="2.209" r="2.209" transform="translate(35.901 28.979)" fill="url(#linear-gradient-38)"/>
    <circle id="Oval-16" data-name="Oval" cx="2.209" cy="2.209" r="2.209" transform="translate(34.466 25.797)" fill="url(#linear-gradient-34)"/>
    <circle id="Oval-17" data-name="Oval" cx="2.209" cy="2.209" r="2.209" transform="translate(34.059 22.108)" fill="url(#linear-gradient-38)"/>
    <circle id="Oval-18" data-name="Oval" cx="2.209" cy="2.209" r="2.209" transform="translate(34.943 18.796)" fill="url(#linear-gradient-37)"/>
    <path id="Path-75" data-name="Path" d="M55.154,0,32.092,5.531,19.818,3.292S1.353,55.877.107,61.85s8.843,61.219,8.843,61.219H21.144a208.589,208.589,0,0,0,0-29.865c-1.246-14.185-3.62-21.643-3.62-24.632S33.829,34.224,33.829,34.224s3.838,18.708,5.337,32.1c2.651,23.644-4.642,58.484-4.642,58.484H48.2s5.03-9.553,9.265-32.7-4.32-22.184.457-40.714C65.566,21.742,55.154,0,55.154,0Z" transform="translate(192.75 118.946)" fill="#1f1844"/>
    <path id="Path-76" data-name="Path" d="M15.61,8.277v.094a12.542,12.542,0,0,1-3.356.362c-1.8,0-9.18-1.018-12.254-1.42C1.986,5.859,10.427.362,10.427.362L12.795,0A7.462,7.462,0,0,1,15.6,3.217,11.052,11.052,0,0,1,15.61,8.277Z" transform="translate(59.857 103.684)" fill="url(#linear-gradient-50)"/>
    <path id="Path-77" data-name="Path" d="M7.274,9.484a10.471,10.471,0,0,1-4.469.631,11.233,11.233,0,0,0,0-5.079A7.462,7.462,0,0,0,0,1.818c.5-.084.9-.144.933-.154A53.644,53.644,0,0,0,6.4.174,2.691,2.691,0,0,1,8,.08c.159,1.211.5,3.764.5,5.035C8.57,6.813,8.247,9.037,7.274,9.484Z" transform="translate(72.652 101.846)" fill="#d5527e"/>
    <path id="Path-78" data-name="Path" d="M50.166,19.1h-.074c-.616.109-7.224,4.131-7.626,4.295s-5.337,2.339-5.337,2.339l-6.142,3.754c-1.912,0-6.365-1.36-6.951-1.36a4.409,4.409,0,0,1-1.7-.452s-4.419-3.883-5.273-4.429.124-.362-1.986-1.087a23.046,23.046,0,0,0-5.154-1.4,11.713,11.713,0,0,0-4.543.427c-1.455.5-1.152,1.152-.789,1.574s1.986.5,2.79.273a7.36,7.36,0,0,1,2.785.452,15.779,15.779,0,0,0-3.878.705c-1.455.571-3.029.993-2.815,2.026s1.425.665,1.907.7c-.849.76-1.241,1.033-.819,1.787s1.777.3,1.877.273c-.025.084-.328,1.216,1.306,1.276s4.727,0,5.759.5,2.756,1.6,2.756,1.6l6.306-1.634.074-.025a25.525,25.525,0,0,1,.74,5.407,25.7,25.7,0,0,1-.72,6.8c-1.624.616-5.422,1.882-7.721,1.321C11.96,43.5,6.995,37.677,5.158,33.3S-.954,11.879.193,7.852C2.179.678,14.273.275,18.717.275c2.885,0,4.6,4.578,8.709,4.568,2.214,0,3.366-4.965,4.707-4.841C45.171,1.3,46.124,3.508,50.166,19.1Z" transform="translate(26.518 73.102)" fill="#d5527e"/>
    <path id="Path-79" data-name="Path" d="M27.679,7.484,19.184,10l-.074.025L12.8,11.66s-1.728-1.087-2.756-1.6-4.061-.452-5.759-.5S2.958,8.368,2.983,8.283c-.1.03-1.49.457-1.877-.273s-.03-1.028.819-1.787c-.5-.03-1.7.333-1.907-.7S1.379,4.073,2.834,3.5a15.779,15.779,0,0,1,3.878-.715,7,7,0,0,0-2.785-.452c-.8.243-2.423.149-2.79-.273S.471.97,1.925.488A11.713,11.713,0,0,1,6.468.061a23.186,23.186,0,0,1,5.154,1.4c2.12.725,1.152.546,1.986,1.087s5.273,4.429,5.273,4.429a4.409,4.409,0,0,0,1.7.452c.561,0,3.629.03,5.546.05Z" transform="translate(29.989 93.817)" fill="url(#linear-gradient-51)"/>
    <path id="Path-80" data-name="Path" d="M32.472,9.277a.859.859,0,0,1-.993.452,2.691,2.691,0,0,0-1.6.094c-1.306.546-5.392,1.455-5.462,1.49s-.427.07-.933.154l-2.388.382S12.651,17.365,10.665,18.8l-.07.05C9.081,19.967,2.984,22.6.8,23.527l-.109.04-.174.074-.5.189a25.7,25.7,0,0,0,.72-6.8A25.525,25.525,0,0,0,0,11.621L8.5,9.1l5.958-2.458s4.93-2.185,5.337-2.339S26.8.122,27.417.012h.074a2.015,2.015,0,0,1,2.041,1.619,1.286,1.286,0,0,1-.149.69s1.211,0,1.455.993a8.937,8.937,0,0,1,.213,2.061s.755-.3,1.033.3.119,1.907-.218,2.09S33.1,8.279,32.472,9.277Z" transform="translate(49.168 92.202)" fill="url(#linear-gradient-52)"/>
    <path id="Path-81" data-name="Path" d="M9.444,5.208h0c0,.933-.874,8.272-2.453,6.623C5.923,10.715,2.339,10.154,0,9.905,2.125,7.224,6.345,0,6.345,0S9.444,4.344,9.444,5.208Z" transform="translate(235.814 52.4)" fill="url(#linear-gradient-53)"/>
    <path id="Path-82" data-name="Path" d="M36.7,48.365c-.387.621-9.151,3.972-9.667,4.24-.958.5-9.93,1.2-14.716,1.4v-.372s-6.926.109-9.741-2.6S-.568,46.384.733,40.977,8.742,9.92,9.715,8.3s3.029-5.521,5.625-6.276A31.642,31.642,0,0,0,20.147,0c-.333.372-.571.69-.561.854.03.407-.919,1.405-.864,1.678a8.151,8.151,0,0,1-.566,1.653A6.6,6.6,0,0,0,17.749,6c-.055.809.273,1.216,1.38,3.515s2.483,4.841,2.483,4.841l2.1,6.216.268-.209c.2,1.207.665,3.684,1.326,7.448a47.69,47.69,0,0,0,5.988,14.98C31.115,42.9,36.7,48.365,36.7,48.365Z" transform="translate(197.168 61.252)" fill="url(#linear-gradient-54)"/>
    <path id="Path-83" data-name="Path" d="M50.291,0c-.03.447-.065.914-.109,1.385-.65,7-4.4,14.5-5.337,20.2s-3.212,26.945-3.212,26.945S17.154,53.106,9.93,51.22,0,46.324,0,46.324V37.1c4.781-.2,13.758-.9,14.716-1.4a4.364,4.364,0,0,0,1.4-1.534l6.951-2.433a6.757,6.757,0,0,0,4.757,2.4c3.679.218,11.976-10.6,13.709-14.428C42.66,17.2,47.253,6.852,50.291,0Z" transform="translate(209.504 78.153)" fill="url(#linear-gradient-55)"/>
    <path id="Shape-2" data-name="Shape" d="M3.869,18.883s-1.375-2.542-2.483-4.841S-.049,11.336.006,10.527A6.59,6.59,0,0,1,.413,8.715,8.123,8.123,0,0,0,.979,7.061c-.055-.273.894-1.271.864-1.678-.01-.164.228-.482.561-.854C2.9,3.973,3.585,3.283,3.958,2.787c.621-.824,1.082-.5,1.082-.5S5.358.666,6.033.18,7.448.343,8.441.393A4.861,4.861,0,0,1,10.606,1.54c.288-.2.571.015.839.4a5.876,5.876,0,0,0,1.514,1.326c.273.109.77,2,.635,3.773-.035,1.127,0,2.652,0,3.644l-.134.09s-.646,4.473-1.728,5.263c-.73.526.074,2.661.68,4L6.232,24.891l-.268.208Z" transform="translate(214.916 56.708)" fill="url(#linear-gradient-56)"/>
    <path id="Path-84" data-name="Path" d="M8.9,6.693,1.948,9.131l-1.45.5A18.519,18.519,0,0,1,.061,4.543C.23,3.332,4.083.01,4.316,0c.228.362.685,1.46.924,1.8A45.281,45.281,0,0,0,8.9,6.693Z" transform="translate(225.451 100.725)" fill="url(#linear-gradient-57)"/>
    <path id="Path-85" data-name="Path" d="M2.115,11.251,2.8,0,0,12.482s2.363.5,2.636.611a55.706,55.706,0,0,0,8.654.864c1.211-.079-9.434.223,3.332-.849Z" transform="translate(210.453 90.541)" fill="url(#linear-gradient-58)"/>
    <path id="Path-86" data-name="Path" d="M37.263,8.932c-.993-1.445-3.61-3.476-6.425-5.124C28.792,2.6,25.674.859,24.13,0c0,.933-.874,8.272-2.453,6.623C20.61,5.506,17.025,4.945,14.687,4.7a4.757,4.757,0,0,1-.869.914c-1.306.854-5.625,3.649-6.455,4.171l-.134.089S6.584,14.339,5.5,15.134c-.73.531.074,2.661.68,4L0,23.991c.2,1.207.665,3.684,1.326,7.448a44.417,44.417,0,0,0,5.5,14.548l.209.333c.228.362.467.72.705,1.063a45.867,45.867,0,0,0,3.684,4.886,6.758,6.758,0,0,0,4.757,2.4c3.679.218,11.976-10.6,13.709-14.428,1.132-2.483,5.725-12.855,8.763-19.706C39.08,14.314,38.2,10.278,37.263,8.932Z" transform="translate(221.128 57.623)" fill="url(#linear-gradient-59)"/>
    <path id="Path-87" data-name="Path" d="M5.794,5.858s.645.993.159,1.514-1.673,1.6-1.673,1.6S1.142,6.489,0,4.284A7.686,7.686,0,0,0,1.137,2.666,5.3,5.3,0,0,1,2.353,1.017C2.547.908,3.764-.174,4.2.024s.119,1.39.109,1.435c.089-.07,1.986-1.544,2.542-.5a1.892,1.892,0,0,1-.273,2.026s.894-.164.993.626S5.794,5.858,5.794,5.858Z" transform="translate(236.167 86.058)" fill="url(#linear-gradient-60)"/>
    <path id="Path-88" data-name="Path" d="M0,0,8.222,13.157,9.453,11.5,0,0Z" transform="translate(227.329 76.758)" fill="url(#linear-gradient-61)"/>
    <path id="Path-89" data-name="Path" d="M24.225,16.229h0a.253.253,0,0,0-.035-.074h0a22.909,22.909,0,0,0-.367-4.469A18.778,18.778,0,0,0,19.051,2.56C18.689,2.143,15.158.7,14.771.132s-2.011.75-.357,2.7,3.113,2.8,2.845,3a35.567,35.567,0,0,0-5.382-1.648c-4.93-.864-8.6-.933-8.614.367A1.023,1.023,0,0,0,4.424,5.663C3.694,5.723.01,6.105,0,7.277c0,1.3,2.483.993,2.483.993s-2.413.472-.06,1.211A36.835,36.835,0,0,0,8.967,10.5s-4.632-.2-4.275,1.082,5.084.571,6.8.874a12.821,12.821,0,0,1,5.462,2.731,15.51,15.51,0,0,1,1.49,1.192l.055.958c-.189,3.893-.367,14.4,2.428,22.427a4.037,4.037,0,0,0,6.157,1.951,17.378,17.378,0,0,0,2.979-2.676S25.615,21.5,24.225,16.229Z" transform="translate(82.334 68.334)" fill="url(#linear-gradient-62)"/>
    <path id="Path-90" data-name="Path" d="M13.762,11.429S5.1,10.4,1.453,13.539C-1.9,8.381.654.546,8.1.322S25.6-1.634,29.665,6.037s2.15,14.165.179,18.624c-1.832-3.754-4.866-2.329-6.013,0a49.76,49.76,0,0,1-5.064-12.015s7.04.9,7.04-.755C25.807,10.908,18.066,12.914,13.762,11.429Z" transform="translate(127.031 23.801)" fill="url(#linear-gradient-63)"/>
  </g>
</svg>
